<svg width="309" height="157" viewBox="0 0 309 157" fill="none" xmlns="http://www.w3.org/2000/svg">
<path d="M73.5 156C60.7 156 48.7 152.9 37.5 146.7C26.3 140.5 17.2 131.6 10.2 120C3.4 108.2 2.23517e-07 94.3 2.23517e-07 78.3C2.23517e-07 62.3 3.4 48.5 10.2 36.9C17.2 25.1 26.3 16 37.5 9.6C48.7 3.19999 60.7 -1.50204e-05 73.5 -1.50204e-05C86.3 -1.50204e-05 98.2 3.19999 109.2 9.6C120.4 16 129.4 25.1 136.2 36.9C143 48.5 146.4 62.3 146.4 78.3C146.4 94.3 143 108.2 136.2 120C129.4 131.6 120.4 140.5 109.2 146.7C98.2 152.9 86.3 156 73.5 156ZM73.5 132.9C81.7 132.9 89.5 130.8 96.9 126.6C104.3 122.4 110.4 116.2 115.2 108C120 99.8 122.4 89.9 122.4 78.3C122.4 66.7 120 56.8 115.2 48.6C110.6 40.4 104.5 34.1 96.9 29.7C89.5 25.3 81.7 23.1 73.5 23.1C65.3 23.1 57.4 25.3 49.8 29.7C42.2 33.9 36 40.1 31.2 48.3C26.4 56.5 24 66.5 24 78.3C24 89.9 26.4 99.8 31.2 108C36 116.2 42.2 122.4 49.8 126.6C57.4 130.8 65.3 132.9 73.5 132.9ZM281.367 1.5V196.5H257.367V31.2L263.067 33L195.567 139.5L190.467 130.5H262.167V153H174.867V130.5L257.367 1.5H281.367ZM276.567 153V130.5H308.967V153H276.567Z" fill="url(#paint0_linear_1813_7705)" style=""/>
<defs>
<linearGradient id="paint0_linear_1813_7705" x1="142.661" y1="20.3333" x2="122.011" y2="183.697" gradientUnits="userSpaceOnUse">
<stop stop-color="#185ADC" stop-opacity="0.85" style="stop-color:#185ADC;stop-color:color(display-p3 0.0941 0.3529 0.8627);stop-opacity:0.85;"/>
<stop offset="1" stop-color="#FAFAFA" style="stop-color:#FAFAFA;stop-color:color(display-p3 0.9804 0.9804 0.9804);stop-opacity:1;"/>
</linearGradient>
</defs>
</svg>
