<svg width="15" height="15" viewBox="0 0 15 15" fill="none" xmlns="http://www.w3.org/2000/svg">
<g clip-path="url(#clip0_2266_23)">
<path fill-rule="evenodd" clip-rule="evenodd" d="M4.52208 11.6635C4.8191 11.8202 5.14989 11.902 5.48573 11.9019C6.60432 11.9019 7.51747 11.0121 7.5587 9.90312L7.56282 0H10.0336C10.0338 0.210339 10.0534 0.420212 10.092 0.626975H8.2829V0.627317H10.092H10.754C10.7537 1.45614 11.0541 2.25693 11.5995 2.88099C11.5997 2.88126 11.6 2.88153 11.6002 2.88179C12.1566 3.24524 12.8069 3.4385 13.4715 3.43789V3.98818C13.7041 4.03799 13.9446 4.06452 14.1919 4.06452V6.53601C12.9583 6.53743 11.7556 6.15065 10.754 5.43047V10.4521C10.754 12.9597 8.71372 15 6.20581 15C5.58127 15.0002 4.96342 14.8713 4.39099 14.6215C3.81898 14.372 3.30465 14.007 2.88016 13.5495C2.87985 13.5493 2.87955 13.5491 2.87923 13.5489C1.70636 12.7254 0.9375 11.3635 0.9375 9.82513C0.9375 7.31723 2.97783 5.27656 5.48573 5.27656C5.69081 5.27754 5.89558 5.29246 6.09862 5.32122V5.90628C6.09862 5.90628 6.09863 5.90628 6.09862 5.90628L6.09862 7.84389C6.09862 7.84389 6.09862 7.84389 6.09862 7.84389L6.09862 5.90628C6.11289 5.906 6.12711 5.90551 6.14133 5.90502C6.16273 5.90427 6.18414 5.90353 6.20581 5.90353C6.41088 5.90451 6.61565 5.91943 6.8187 5.94819V8.47087C6.62494 8.41006 6.41984 8.37467 6.20581 8.37467C5.65507 8.37531 5.12707 8.5944 4.73767 8.98386C4.34826 9.37333 4.12926 9.90136 4.12872 10.4521C4.12875 10.8871 4.26623 11.311 4.52153 11.6632C4.52171 11.6633 4.52189 11.6634 4.52208 11.6635ZM7.17412 12.2889C7.81016 11.9515 8.25054 11.2924 8.27912 10.5298V10.5301C8.25054 11.2925 7.81016 11.9515 7.17412 12.2889ZM5.48592 7.7477C5.61308 7.74771 5.7372 7.76013 5.85777 7.78308C5.73533 7.75998 5.61086 7.74811 5.48592 7.7477ZM4.01771 8.35677C4.0177 8.35677 4.01771 8.35676 4.01771 8.35677V8.35677ZM1.95759 12.0749C2.16867 12.6249 2.48369 13.1238 2.87823 13.5478C2.47566 13.117 2.1648 12.6159 1.95759 12.0749ZM5.48574 14.373C5.48573 14.373 5.48574 14.373 5.48574 14.373V14.373ZM10.0336 9.82479V4.80315C10.0336 4.80315 10.0336 4.80315 10.0336 4.80315V9.82479Z" fill="#3083FF" style="fill:#3083FF;fill:color(display-p3 0.1875 0.5125 1.0000);fill-opacity:1;"/>
</g>
<defs>
<clipPath id="clip0_2266_23">
<rect width="15" height="15" fill="white" style="fill:white;fill-opacity:1;"/>
</clipPath>
</defs>
</svg>
