<svg width="189" height="65" viewBox="0 0 189 65" fill="none" xmlns="http://www.w3.org/2000/svg">
<rect width="189" height="65" rx="32.5" fill="#222222" style="fill:#222222;fill:color(display-p3 0.1346 0.1346 0.1346);fill-opacity:1;"/>
<path d="M43.0747 34.3291L30.1211 47.4684C30.1223 47.4706 30.1223 47.4741 30.1235 47.4765C30.5214 48.9032 31.884 49.9532 33.5022 49.9532C34.1494 49.9532 34.7565 49.7857 35.2772 49.4927L35.3186 49.4695L49.8989 41.4289L43.0747 34.3291Z" fill="#EA4335" style="fill:#EA4335;fill:color(display-p3 0.9176 0.2627 0.2078);fill-opacity:1;"/>
<path d="M56.1782 32.0916L56.166 32.0835L49.8711 28.5963L42.7793 34.6276L49.8967 41.4274L56.1575 37.9752C57.2549 37.4078 58.0007 36.302 58.0007 35.0276C58.0007 33.7601 57.2659 32.6602 56.1782 32.0916Z" fill="#FBBC04" style="fill:#FBBC04;fill:color(display-p3 0.9843 0.7373 0.0157);fill-opacity:1;"/>
<path d="M30.1193 22.5304C30.0414 22.8048 30 23.0932 30 23.3908V46.6089C30 46.9066 30.0414 47.195 30.1205 47.4682L43.5181 34.665L30.1193 22.5304Z" fill="#4285F4" style="fill:#4285F4;fill:color(display-p3 0.2588 0.5216 0.9569);fill-opacity:1;"/>
<path d="M43.1689 34.9999L49.8726 28.5943L35.3093 20.5246C34.7801 20.2212 34.162 20.0468 33.5014 20.0468C31.8833 20.0468 30.5182 21.0991 30.1203 22.5269C30.1203 22.5281 30.1191 22.5293 30.1191 22.5304L43.1689 34.9999Z" fill="#34A853" style="fill:#34A853;fill:color(display-p3 0.2039 0.6588 0.3255);fill-opacity:1;"/>
<path d="M69.6539 22.5156C69.6539 23.7617 69.2584 24.7544 68.4674 25.4938C67.5784 26.3743 66.4094 26.8147 64.9609 26.8147C63.5739 26.8147 62.4009 26.3661 61.4407 25.4689C60.4807 24.5717 60.0007 23.4668 60.0007 22.1542C60.0007 20.8416 60.4807 19.7368 61.4407 18.8396C62.4009 17.9424 63.5739 17.4938 64.9609 17.4938C65.6629 17.4938 66.3254 17.6101 66.9474 17.8427C67.5694 18.0753 68.0809 18.4034 68.4809 18.8271L67.6009 19.6495C67.3074 19.3172 66.9254 19.0597 66.4539 18.877C65.9919 18.6859 65.4939 18.5904 64.9609 18.5904C63.9209 18.5904 63.0409 18.9268 62.3209 19.5997C61.6094 20.2809 61.254 21.1324 61.254 22.1542C61.254 23.176 61.6094 24.0275 62.3209 24.7087C63.0409 25.3816 63.9209 25.7181 64.9609 25.7181C65.9119 25.7181 66.7029 25.4689 67.3339 24.9704C67.9654 24.472 68.3294 23.7866 68.4274 22.9143H64.9609V21.8427H69.5874C69.6319 22.0753 69.6539 22.2996 69.6539 22.5156ZM76.7179 17.6932V18.7897H72.3714V21.6184H76.2914V22.69H72.3714V25.5187H76.7179V26.6153H71.1444V17.6932H76.7179ZM81.6244 18.7897V26.6153H80.3979V18.7897H77.7309V17.6932H84.2909V18.7897H81.6244ZM89.7279 26.6153H88.5014V17.6932H89.7279V26.6153ZM94.9054 18.7897V26.6153H93.6789V18.7897H91.0124V17.6932H97.5724V18.7897H94.9054ZM110.869 22.1542C110.869 23.4751 110.397 24.5799 109.455 25.4689C108.504 26.3661 107.34 26.8147 105.962 26.8147C104.575 26.8147 103.411 26.3661 102.469 25.4689C101.526 24.5799 101.055 23.4751 101.055 22.1542C101.055 20.8334 101.526 19.7284 102.469 18.8396C103.411 17.9424 104.575 17.4938 105.962 17.4938C107.349 17.4938 108.513 17.9465 109.455 18.852C110.397 19.7409 110.869 20.8416 110.869 22.1542ZM102.309 22.1542C102.309 23.1843 102.655 24.0358 103.349 24.7087C104.051 25.3816 104.922 25.7181 105.962 25.7181C107.002 25.7181 107.869 25.3816 108.562 24.7087C109.264 24.0441 109.615 23.1927 109.615 22.1542C109.615 21.1158 109.264 20.2643 108.562 19.5997C107.869 18.9268 107.002 18.5904 105.962 18.5904C104.922 18.5904 104.051 18.9268 103.349 19.5997C102.655 20.2726 102.309 21.1241 102.309 22.1542ZM113.543 26.6153H112.316V17.6932H113.81L118.45 24.634H118.503L118.45 22.9143V17.6932H119.676V26.6153H118.396L113.543 19.338H113.49L113.543 21.0577V26.6153Z" fill="white" style="fill:white;fill-opacity:1;"/>
<path d="M136.692 48.0323H138.863V34.3108H136.692V48.0323ZM156.252 39.2535L153.763 45.2026H153.688L151.105 39.2535H148.765L152.64 47.568L150.432 52.1935H152.696L158.667 39.2535H156.252ZM143.937 46.4737C143.224 46.4737 142.233 46.1389 142.233 45.308C142.233 44.2499 143.468 43.8438 144.535 43.8438C145.489 43.8438 145.94 44.0381 146.519 44.3026C146.35 45.5736 145.19 46.4737 143.937 46.4737ZM144.198 38.9538C142.626 38.9538 140.997 39.6069 140.324 41.0547L142.251 41.8132C142.663 41.0547 143.43 40.8066 144.236 40.8066C145.359 40.8066 146.501 41.4421 146.519 42.5727V42.7132C146.126 42.5014 145.284 42.1841 144.254 42.1841C142.177 42.1841 140.061 43.2609 140.061 45.2729C140.061 47.1092 141.765 48.2925 143.674 48.2925C145.134 48.2925 145.94 47.6745 146.445 46.9501H146.519V48.0093H148.615V42.7483C148.615 40.3127 146.688 38.9538 144.198 38.9538ZM130.777 40.924H127.688V36.2207H130.777C132.4 36.2207 133.322 37.4885 133.322 38.5718C133.322 39.6354 132.4 40.924 130.777 40.924ZM130.721 34.3108H125.517V48.0323H127.688V42.8339H130.721C133.128 42.8339 135.494 41.1897 135.494 38.5718C135.494 35.954 133.128 34.3108 130.721 34.3108ZM102.345 46.4759C100.845 46.4759 99.5892 45.2916 99.5892 43.6648C99.5892 42.0206 100.845 40.8176 102.345 40.8176C103.827 40.8176 104.988 42.0206 104.988 43.6648C104.988 45.2916 103.827 46.4759 102.345 46.4759ZM104.839 40.0218H104.764C104.276 39.4741 103.339 38.979 102.158 38.979C99.6822 38.979 97.4137 41.0294 97.4137 43.6648C97.4137 46.2816 99.6822 48.3155 102.158 48.3155C103.339 48.3155 104.276 47.8205 104.764 47.2541H104.839V47.9269C104.839 49.7128 103.827 50.6677 102.195 50.6677C100.864 50.6677 100.038 49.7655 99.7007 49.0048L97.8072 49.7479C98.3507 50.9861 99.7952 52.5063 102.195 52.5063C104.745 52.5063 106.902 51.0914 106.902 47.6438V39.2611H104.839V40.0218ZM108.402 48.0323H110.577V34.3097H108.402V48.0323ZM113.782 43.5057C113.726 41.7023 115.264 40.7825 116.37 40.7825C117.233 40.7825 117.964 41.1886 118.207 41.7725L113.782 43.5057ZM120.533 41.9492C120.121 40.9065 118.864 38.979 116.295 38.979C113.745 38.979 111.627 40.8703 111.627 43.6473C111.627 46.264 113.726 48.3155 116.538 48.3155C118.808 48.3155 120.121 47.0071 120.664 46.2465L118.977 45.1851C118.414 45.9633 117.645 46.4759 116.538 46.4759C115.433 46.4759 114.645 45.9984 114.138 45.0621L120.757 42.4794L120.533 41.9492ZM67.8007 40.4115V42.3916H72.8252C72.6752 43.5057 72.2817 44.319 71.6822 44.8843C70.9502 45.5747 69.8062 46.3354 67.8007 46.3354C64.7062 46.3354 62.2877 43.9832 62.2877 41.0657C62.2877 38.147 64.7062 35.7959 67.8007 35.7959C69.4697 35.7959 70.6882 36.415 71.5882 37.2108L73.0697 35.8135C71.8127 34.6818 70.1447 33.8147 67.8007 33.8147C63.5632 33.8147 60.0007 37.0692 60.0007 41.0657C60.0007 45.0621 63.5632 48.3155 67.8007 48.3155C70.0877 48.3155 71.8127 47.6075 73.1627 46.2816C74.5512 44.9732 74.9817 43.1347 74.9817 41.6485C74.9817 41.1886 74.9447 40.7649 74.8687 40.4115H67.8007ZM80.6952 46.4759C79.1947 46.4759 77.9007 45.3091 77.9007 43.6473C77.9007 41.9668 79.1947 40.8176 80.6952 40.8176C82.1942 40.8176 83.4882 41.9668 83.4882 43.6473C83.4882 45.3091 82.1942 46.4759 80.6952 46.4759ZM80.6952 38.979C77.9567 38.979 75.7257 40.9416 75.7257 43.6473C75.7257 46.3354 77.9567 48.3155 80.6952 48.3155C83.4327 48.3155 85.6637 46.3354 85.6637 43.6473C85.6637 40.9416 83.4327 38.979 80.6952 38.979ZM91.5342 46.4759C90.0337 46.4759 88.7397 45.3091 88.7397 43.6473C88.7397 41.9668 90.0337 40.8176 91.5342 40.8176C93.0342 40.8176 94.3272 41.9668 94.3272 43.6473C94.3272 45.3091 93.0342 46.4759 91.5342 46.4759ZM91.5342 38.979C88.7967 38.979 86.5657 40.9416 86.5657 43.6473C86.5657 46.3354 88.7967 48.3155 91.5342 48.3155C94.2717 48.3155 96.5027 46.3354 96.5027 43.6473C96.5027 40.9416 94.2717 38.979 91.5342 38.979Z" fill="white" style="fill:white;fill-opacity:1;"/>
</svg>
