<svg width="19" height="19" viewBox="0 0 19 19" fill="none" xmlns="http://www.w3.org/2000/svg">
<path d="M9.43359 0C11.9522 0.000877269 14.3203 0.983227 16.1006 2.76562C17.8807 4.54799 18.8604 6.91705 18.8594 9.43652C18.8573 14.636 14.627 18.8662 9.42969 18.8662H9.42578C7.7339 18.8655 6.0746 18.4108 4.62695 17.5518L4.28223 17.3477L0.712891 18.2832L1.66602 14.8037L1.44141 14.4473C0.497515 12.946 -0.000731361 11.2104 0 9.42871C0.00214525 4.2297 4.23229 0 9.43359 0ZM5.41406 4.18945C5.22512 4.18945 4.91802 4.26024 4.6582 4.54395C4.39839 4.82772 3.66615 5.51324 3.66602 6.9082C3.66602 8.30333 4.68125 9.65134 4.82324 9.84082C4.96497 10.0301 6.8223 12.8932 9.66602 14.1211C10.3423 14.4132 10.8705 14.5881 11.2822 14.7188C11.9611 14.9344 12.5791 14.9041 13.0674 14.8311C13.612 14.7496 14.7439 14.1453 14.9805 13.4834C15.2166 12.8211 15.2163 12.253 15.1455 12.1348C15.0745 12.0168 14.8857 11.9455 14.6025 11.8037C14.3187 11.6617 12.9269 10.9771 12.666 10.8818C12.4063 10.7873 12.2172 10.74 12.0283 11.0234C11.8394 11.3072 11.2953 11.9456 11.1299 12.1348C10.9646 12.3238 10.7997 12.3478 10.5166 12.2061C10.2331 12.0642 9.31912 11.7646 8.23633 10.7988C7.39368 10.0471 6.82453 9.11875 6.65918 8.83496C6.49409 8.55134 6.64231 8.39814 6.78418 8.25684C6.91169 8.12977 7.06731 7.92519 7.20898 7.75977C7.3506 7.59438 7.39774 7.47607 7.49219 7.28711C7.58667 7.09783 7.53964 6.93194 7.46875 6.79004C7.39707 6.64605 6.83074 5.25266 6.59473 4.68555C6.36464 4.13295 6.13101 4.20793 5.95703 4.19922C5.79198 4.19093 5.60289 4.18946 5.41406 4.18945Z" fill="#3083FF" style="fill:#3083FF;fill:color(display-p3 0.1875 0.5125 1.0000);fill-opacity:1;"/>
</svg>
