<svg width="330" height="329" viewBox="0 0 330 329" fill="none" xmlns="http://www.w3.org/2000/svg">
<g clip-path="url(#clip0_3043_17019)">
<path d="M4.01298 88.0175C6.23105 88.0175 8.02592 86.228 8.02592 84.0169V68.0136C8.02592 65.8021 6.23105 64.0127 4.01298 64.0127C1.79489 64.0127 0 65.8021 0 68.0136V84.0169C0 86.228 1.79489 88.0175 4.01298 88.0175Z" fill="#2C2D2E" style="fill:#2C2D2E;fill:color(display-p3 0.1725 0.1765 0.1804);fill-opacity:1;"/>
<path d="M4.01298 104.021H8.02592V116.023C8.02592 118.235 9.8208 120.024 12.0389 120.024H20.0648C22.2829 120.024 24.0778 118.235 24.0778 116.023C24.0778 113.812 22.2829 112.022 20.0648 112.022H16.0518V100.02C16.0518 97.8089 14.257 96.0194 12.0389 96.0194H4.01298C1.79489 96.0194 0 97.8089 0 100.02C0 102.231 1.79489 104.021 4.01298 104.021Z" fill="#2C2D2E" style="fill:#2C2D2E;fill:color(display-p3 0.1725 0.1765 0.1804);fill-opacity:1;"/>
<path d="M4.01298 176.035C6.23105 176.035 8.02592 174.246 8.02592 172.034V160.032H24.0778V164.033C24.0778 166.244 25.8727 168.034 28.0907 168.034C30.3088 168.034 32.1037 166.244 32.1037 164.033V156.031C32.1037 153.82 30.3088 152.031 28.0907 152.031H24.0778V148.03C24.0778 145.818 22.2829 144.029 20.0648 144.029H4.01298C1.79489 144.029 0 145.818 0 148.03V172.034C0 174.246 1.79489 176.035 4.01298 176.035Z" fill="#2C2D2E" style="fill:#2C2D2E;fill:color(display-p3 0.1725 0.1765 0.1804);fill-opacity:1;"/>
<path d="M4.01298 232.047H8.02592V236.047C8.02592 238.259 9.8208 240.048 12.0389 240.048H28.0907C30.3088 240.048 32.1037 238.259 32.1037 236.047C32.1037 233.836 30.3088 232.047 28.0907 232.047H24.0778V228.046C24.0778 225.835 22.2829 224.045 20.0648 224.045H16.0518V208.042H24.0778V220.044C24.0778 222.256 25.8727 224.045 28.0907 224.045H32.1037V228.046C32.1037 230.257 33.8986 232.047 36.1167 232.047C38.3349 232.047 40.1298 230.257 40.1298 228.046V224.045H44.1425C46.3607 224.045 48.1556 222.256 48.1556 220.044C48.1556 217.833 46.3607 216.043 44.1425 216.043H40.1298V208.042H44.1425C46.3607 208.042 48.1556 206.252 48.1556 204.041V200.04H52.1687C54.3865 200.04 56.1814 198.251 56.1814 196.039C56.1814 193.828 54.3865 192.038 52.1687 192.038H44.1425C41.9243 192.038 40.1298 193.828 40.1298 196.039V200.04H32.1037V192.038H36.1167C38.3349 192.038 40.1298 190.249 40.1298 188.038C40.1298 185.826 38.3349 184.037 36.1167 184.037H24.0778V172.034C24.0778 169.823 22.2829 168.034 20.0648 168.034C17.8468 168.034 16.0518 169.823 16.0518 172.034V176.035H12.0389C9.8208 176.035 8.02592 177.825 8.02592 180.036V200.04H4.01298C1.79489 200.04 0 201.83 0 204.041C0 206.252 1.79489 208.042 4.01298 208.042H8.02592V216.043H4.01298C1.79489 216.043 0 217.833 0 220.044V228.046C0 230.257 1.79489 232.047 4.01298 232.047ZM16.0518 192.038H24.0778V200.04H16.0518V192.038Z" fill="#2C2D2E" style="fill:#2C2D2E;fill:color(display-p3 0.1725 0.1765 0.1804);fill-opacity:1;"/>
<path d="M4.01298 264.053C6.23105 264.053 8.02592 262.263 8.02592 260.052V252.05C8.02592 249.839 6.23105 248.05 4.01298 248.05C1.79489 248.05 0 249.839 0 252.05V260.052C0 262.263 1.79489 264.053 4.01298 264.053Z" fill="#2C2D2E" style="fill:#2C2D2E;fill:color(display-p3 0.1725 0.1765 0.1804);fill-opacity:1;"/>
<path d="M12.0387 136.027C14.255 136.027 16.0517 134.236 16.0517 132.026C16.0517 129.817 14.255 128.026 12.0387 128.026C9.82243 128.026 8.02576 129.817 8.02576 132.026C8.02576 134.236 9.82243 136.027 12.0387 136.027Z" fill="#2C2D2E" style="fill:#2C2D2E;fill:color(display-p3 0.1725 0.1765 0.1804);fill-opacity:1;"/>
<path d="M20.0649 96.0194C22.2813 96.0194 24.0779 94.2281 24.0779 92.0185C24.0779 89.8088 22.2813 88.0179 20.0649 88.0179C17.8487 88.0179 16.052 89.8088 16.052 92.0185C16.052 94.2281 17.8487 96.0194 20.0649 96.0194Z" fill="#2C2D2E" style="fill:#2C2D2E;fill:color(display-p3 0.1725 0.1765 0.1804);fill-opacity:1;"/>
<path d="M20.0649 264.053C22.2813 264.053 24.0779 262.262 24.0779 260.052C24.0779 257.843 22.2813 256.051 20.0649 256.051C17.8487 256.051 16.052 257.843 16.052 260.052C16.052 262.262 17.8487 264.053 20.0649 264.053Z" fill="#2C2D2E" style="fill:#2C2D2E;fill:color(display-p3 0.1725 0.1765 0.1804);fill-opacity:1;"/>
<path d="M28.0909 64.0127H20.0649C17.8469 64.0127 16.052 65.8021 16.052 68.0136C16.052 70.225 17.8469 72.0145 20.0649 72.0145H24.0779V84.0169C24.0779 86.228 25.8728 88.0175 28.0909 88.0175C30.309 88.0175 32.1038 86.228 32.1038 84.0169V68.0136C32.1038 65.8021 30.309 64.0127 28.0909 64.0127Z" fill="#2C2D2E" style="fill:#2C2D2E;fill:color(display-p3 0.1725 0.1765 0.1804);fill-opacity:1;"/>
<path d="M28.0907 104.021C30.307 104.021 32.1037 102.23 32.1037 100.02C32.1037 97.8106 30.307 96.0194 28.0907 96.0194C25.8744 96.0194 24.0778 97.8106 24.0778 100.02C24.0778 102.23 25.8744 104.021 28.0907 104.021Z" fill="#2C2D2E" style="fill:#2C2D2E;fill:color(display-p3 0.1725 0.1765 0.1804);fill-opacity:1;"/>
<path d="M28.0907 136.027C30.307 136.027 32.1037 134.236 32.1037 132.026C32.1037 129.817 30.307 128.026 28.0907 128.026C25.8744 128.026 24.0778 129.817 24.0778 132.026C24.0778 134.236 25.8744 136.027 28.0907 136.027Z" fill="#2C2D2E" style="fill:#2C2D2E;fill:color(display-p3 0.1725 0.1765 0.1804);fill-opacity:1;"/>
<path d="M28.0907 256.051C30.307 256.051 32.1037 254.26 32.1037 252.05C32.1037 249.841 30.307 248.05 28.0907 248.05C25.8744 248.05 24.0778 249.841 24.0778 252.05C24.0778 254.26 25.8744 256.051 28.0907 256.051Z" fill="#2C2D2E" style="fill:#2C2D2E;fill:color(display-p3 0.1725 0.1765 0.1804);fill-opacity:1;"/>
<path d="M36.1167 120.024H52.1687C54.3865 120.024 56.1815 118.235 56.1815 116.023C56.1815 113.812 54.3865 112.022 52.1687 112.022H36.1167C33.8987 112.022 32.1038 113.812 32.1038 116.023C32.1038 118.235 33.8987 120.024 36.1167 120.024Z" fill="#2C2D2E" style="fill:#2C2D2E;fill:color(display-p3 0.1725 0.1765 0.1804);fill-opacity:1;"/>
<path d="M36.1167 176.035H44.1426C46.3607 176.035 48.1556 174.246 48.1556 172.034V168.034H52.1687C54.3865 168.034 56.1815 166.244 56.1815 164.033C56.1815 161.822 54.3865 160.032 52.1687 160.032H48.1556V152.031H56.1815V156.031C56.1815 158.243 57.9764 160.032 60.1945 160.032H64.2076V164.033C64.2076 166.244 66.0025 168.034 68.2204 168.034H76.2465C78.4643 168.034 80.2593 166.244 80.2593 164.033C80.2593 161.822 78.4643 160.032 76.2465 160.032H72.2334V148.03C72.2334 145.818 70.4385 144.029 68.2204 144.029H64.2076V132.026C64.2076 129.815 62.4127 128.026 60.1945 128.026H52.1687C49.9506 128.026 48.1556 129.815 48.1556 132.026C48.1556 134.238 49.9506 136.027 52.1687 136.027H56.1815V144.029H44.1426C41.9247 144.029 40.1298 145.818 40.1298 148.03V168.034H36.1167C33.8987 168.034 32.1038 169.823 32.1038 172.034C32.1038 174.246 33.8987 176.035 36.1167 176.035Z" fill="#2C2D2E" style="fill:#2C2D2E;fill:color(display-p3 0.1725 0.1765 0.1804);fill-opacity:1;"/>
<path d="M36.1167 264.053C38.3331 264.053 40.1298 262.262 40.1298 260.052C40.1298 257.843 38.3331 256.051 36.1167 256.051C33.9004 256.051 32.1038 257.843 32.1038 260.052C32.1038 262.262 33.9004 264.053 36.1167 264.053Z" fill="#2C2D2E" style="fill:#2C2D2E;fill:color(display-p3 0.1725 0.1765 0.1804);fill-opacity:1;"/>
<path d="M44.1425 240.048C46.3589 240.048 48.1556 238.257 48.1556 236.047C48.1556 233.838 46.3589 232.047 44.1425 232.047C41.9265 232.047 40.1298 233.838 40.1298 236.047C40.1298 238.257 41.9265 240.048 44.1425 240.048Z" fill="#2C2D2E" style="fill:#2C2D2E;fill:color(display-p3 0.1725 0.1765 0.1804);fill-opacity:1;"/>
<path d="M44.1425 256.051C46.3589 256.051 48.1556 254.26 48.1556 252.05C48.1556 249.841 46.3589 248.05 44.1425 248.05C41.9265 248.05 40.1298 249.841 40.1298 252.05C40.1298 254.26 41.9265 256.051 44.1425 256.051Z" fill="#2C2D2E" style="fill:#2C2D2E;fill:color(display-p3 0.1725 0.1765 0.1804);fill-opacity:1;"/>
<path d="M48.1556 64.0127H44.1425C41.9247 64.0127 40.1298 65.8021 40.1298 68.0136V76.0151C40.1298 78.2265 41.9247 80.016 44.1425 80.016C46.3607 80.016 48.1556 78.2265 48.1556 76.0151V72.0145H64.2076V84.0169C64.2076 86.228 66.0025 88.0175 68.2203 88.0175H72.2334V96.0194H44.1425C41.9247 96.0194 40.1298 97.8088 40.1298 100.02C40.1298 102.231 41.9247 104.021 44.1425 104.021H56.1814V108.022C56.1814 110.233 57.9763 112.022 60.1945 112.022H64.2076V116.023C64.2076 118.235 66.0025 120.024 68.2203 120.024H80.2592V124.025C80.2592 126.236 82.0541 128.026 84.2723 128.026H88.2854V136.027H80.2592V132.027C80.2592 129.815 78.4643 128.026 76.2465 128.026C74.0283 128.026 72.2334 129.815 72.2334 132.027V140.028C72.2334 142.24 74.0283 144.029 76.2465 144.029H88.2854V152.031H84.2723C82.0541 152.031 80.2592 153.82 80.2592 156.031C80.2592 158.243 82.0541 160.032 84.2723 160.032H88.2854V168.034H84.2723C82.0541 168.034 80.2592 169.823 80.2592 172.034C80.2592 174.246 82.0541 176.035 84.2723 176.035H92.2981C94.5163 176.035 96.3112 174.246 96.3112 172.034V168.034H104.337V172.034C104.337 174.246 106.132 176.035 108.35 176.035H112.363V180.036C112.363 182.247 114.158 184.037 116.376 184.037C118.594 184.037 120.389 182.247 120.389 180.036V176.035H124.402C126.62 176.035 128.415 174.246 128.415 172.034C128.415 169.823 126.62 168.034 124.402 168.034H112.363V164.033C112.363 161.822 110.568 160.032 108.35 160.032H104.337V156.031C104.337 153.82 102.542 152.031 100.324 152.031H96.3112V124.025C96.3112 121.814 94.5163 120.024 92.2981 120.024H88.2854V100.02C88.2854 97.8088 86.4905 96.0194 84.2723 96.0194H80.2592V88.0175H88.2854V92.0184C88.2854 94.2299 90.0803 96.0194 92.2981 96.0194H104.337V104.021H100.324C98.1061 104.021 96.3112 105.81 96.3112 108.022C96.3112 110.233 98.1061 112.022 100.324 112.022H104.337V116.023C104.337 118.235 106.132 120.024 108.35 120.024H116.376C118.594 120.024 120.389 118.235 120.389 116.023C120.389 113.812 118.594 112.022 116.376 112.022H112.363V104.021H116.376C118.594 104.021 120.389 102.231 120.389 100.02C120.389 97.8088 118.594 96.0194 116.376 96.0194H112.363V92.0184C112.363 89.807 110.568 88.0175 108.35 88.0175H96.3112V80.016H100.324C102.542 80.016 104.337 78.2265 104.337 76.0151C104.337 73.804 102.542 72.0145 100.324 72.0145H88.2854V48.0097H96.3112V60.0121C96.3112 62.2236 98.1061 64.0127 100.324 64.0127C102.542 64.0127 104.337 62.2236 104.337 60.0121V40.0082H108.35C110.568 40.0082 112.363 38.2187 112.363 36.0073V32.0064H140.454C142.672 32.0064 144.467 30.217 144.467 28.0056C144.467 25.7943 142.672 24.0048 140.454 24.0048H120.389V16.0032H124.402C126.62 16.0032 128.415 14.2138 128.415 12.0024C128.415 9.79104 126.62 8.0016 124.402 8.0016H112.363V4.00082C112.363 1.78945 110.568 0 108.35 0H92.2981C90.0803 0 88.2854 1.78945 88.2854 4.00082V16.0032H80.2592V4.00082C80.2592 1.78945 78.4643 0 76.2465 0C74.0283 0 72.2334 1.78945 72.2334 4.00082V8.0016H68.2203C66.0025 8.0016 64.2076 9.79104 64.2076 12.0024C64.2076 14.2138 66.0025 16.0032 68.2203 16.0032H72.2334V24.0048H68.2203C66.0025 24.0048 64.2076 25.7943 64.2076 28.0056C64.2076 30.217 66.0025 32.0064 68.2203 32.0064H72.2334V40.0082H68.2203C66.0025 40.0082 64.2076 41.7973 64.2076 44.0088V64.0127H48.1556ZM80.2592 112.022H72.2334V104.021H80.2592V112.022ZM80.2592 80.016H72.2334V72.0145H80.2592V80.016ZM104.337 16.0032V24.0048H96.3112V16.0032H104.337ZM80.2592 32.0064V24.0048H88.2854V28.0056C88.2854 30.217 90.0803 32.0064 92.2981 32.0064H96.3112V40.0082H80.2592V32.0064ZM72.2334 48.0097H80.2592V56.0112H72.2334V48.0097Z" fill="#2C2D2E" style="fill:#2C2D2E;fill:color(display-p3 0.1725 0.1765 0.1804);fill-opacity:1;"/>
<path d="M52.1684 88.0175C54.3847 88.0175 56.1815 86.2263 56.1815 84.017C56.1815 81.8073 54.3847 80.016 52.1684 80.016C49.9523 80.016 48.1556 81.8073 48.1556 84.017C48.1556 86.2263 49.9523 88.0175 52.1684 88.0175Z" fill="#2C2D2E" style="fill:#2C2D2E;fill:color(display-p3 0.1725 0.1765 0.1804);fill-opacity:1;"/>
<path d="M52.1684 184.037C54.3847 184.037 56.1815 182.246 56.1815 180.036C56.1815 177.827 54.3847 176.035 52.1684 176.035C49.9523 176.035 48.1556 177.827 48.1556 180.036C48.1556 182.246 49.9523 184.037 52.1684 184.037Z" fill="#2C2D2E" style="fill:#2C2D2E;fill:color(display-p3 0.1725 0.1765 0.1804);fill-opacity:1;"/>
<path d="M52.1684 232.047C54.3847 232.047 56.1815 230.255 56.1815 228.046C56.1815 225.836 54.3847 224.045 52.1684 224.045C49.9523 224.045 48.1556 225.836 48.1556 228.046C48.1556 230.255 49.9523 232.047 52.1684 232.047Z" fill="#2C2D2E" style="fill:#2C2D2E;fill:color(display-p3 0.1725 0.1765 0.1804);fill-opacity:1;"/>
<path d="M52.1684 248.05C54.3847 248.05 56.1815 246.259 56.1815 244.049C56.1815 241.839 54.3847 240.048 52.1684 240.048C49.9523 240.048 48.1556 241.839 48.1556 244.049C48.1556 246.259 49.9523 248.05 52.1684 248.05Z" fill="#2C2D2E" style="fill:#2C2D2E;fill:color(display-p3 0.1725 0.1765 0.1804);fill-opacity:1;"/>
<path d="M52.1684 264.053C54.3847 264.053 56.1815 262.262 56.1815 260.052C56.1815 257.843 54.3847 256.051 52.1684 256.051C49.9523 256.051 48.1556 257.843 48.1556 260.052C48.1556 262.262 49.9523 264.053 52.1684 264.053Z" fill="#2C2D2E" style="fill:#2C2D2E;fill:color(display-p3 0.1725 0.1765 0.1804);fill-opacity:1;"/>
<path d="M60.1945 176.035C62.4109 176.035 64.2076 174.244 64.2076 172.034C64.2076 169.825 62.4109 168.034 60.1945 168.034C57.9781 168.034 56.1814 169.825 56.1814 172.034C56.1814 174.244 57.9781 176.035 60.1945 176.035Z" fill="#2C2D2E" style="fill:#2C2D2E;fill:color(display-p3 0.1725 0.1765 0.1804);fill-opacity:1;"/>
<path d="M60.1945 192.038C62.4109 192.038 64.2076 190.247 64.2076 188.038C64.2076 185.828 62.4109 184.037 60.1945 184.037C57.9781 184.037 56.1814 185.828 56.1814 188.038C56.1814 190.247 57.9781 192.038 60.1945 192.038Z" fill="#2C2D2E" style="fill:#2C2D2E;fill:color(display-p3 0.1725 0.1765 0.1804);fill-opacity:1;"/>
<path d="M60.1945 240.048C62.4109 240.048 64.2076 238.257 64.2076 236.047C64.2076 233.838 62.4109 232.047 60.1945 232.047C57.9781 232.047 56.1814 233.838 56.1814 236.047C56.1814 238.257 57.9781 240.048 60.1945 240.048Z" fill="#2C2D2E" style="fill:#2C2D2E;fill:color(display-p3 0.1725 0.1765 0.1804);fill-opacity:1;"/>
<path d="M68.2204 232.047H76.2465C78.4644 232.047 80.2593 230.257 80.2593 228.046C80.2593 225.835 78.4644 224.045 76.2465 224.045H68.2204C66.0026 224.045 64.2076 225.835 64.2076 228.046C64.2076 230.257 66.0026 232.047 68.2204 232.047Z" fill="#2C2D2E" style="fill:#2C2D2E;fill:color(display-p3 0.1725 0.1765 0.1804);fill-opacity:1;"/>
<path d="M76.2465 264.053C78.4644 264.053 80.2593 262.263 80.2593 260.052C80.2593 257.841 78.4644 256.051 76.2465 256.051H68.2204C66.0026 256.051 64.2076 257.841 64.2076 260.052V284.057C64.2076 286.268 66.0026 288.058 68.2204 288.058C70.4385 288.058 72.2335 286.268 72.2335 284.057V280.056H76.2465C78.4644 280.056 80.2593 278.267 80.2593 276.055C80.2593 273.844 78.4644 272.054 76.2465 272.054H72.2335V264.053H76.2465Z" fill="#2C2D2E" style="fill:#2C2D2E;fill:color(display-p3 0.1725 0.1765 0.1804);fill-opacity:1;"/>
<path d="M76.2465 320.064H68.2204C66.0026 320.064 64.2076 321.854 64.2076 324.065C64.2076 326.276 66.0026 328.066 68.2204 328.066H76.2465C78.4644 328.066 80.2593 326.276 80.2593 324.065C80.2593 321.854 78.4644 320.064 76.2465 320.064Z" fill="#2C2D2E" style="fill:#2C2D2E;fill:color(display-p3 0.1725 0.1765 0.1804);fill-opacity:1;"/>
<path d="M84.2724 240.048C86.4884 240.048 88.2851 238.257 88.2851 236.047C88.2851 233.838 86.4884 232.047 84.2724 232.047C82.056 232.047 80.2593 233.838 80.2593 236.047C80.2593 238.257 82.056 240.048 84.2724 240.048Z" fill="#2C2D2E" style="fill:#2C2D2E;fill:color(display-p3 0.1725 0.1765 0.1804);fill-opacity:1;"/>
<path d="M84.2724 256.051C86.4884 256.051 88.2851 254.26 88.2851 252.05C88.2851 249.841 86.4884 248.05 84.2724 248.05C82.056 248.05 80.2593 249.841 80.2593 252.05C80.2593 254.26 82.056 256.051 84.2724 256.051Z" fill="#2C2D2E" style="fill:#2C2D2E;fill:color(display-p3 0.1725 0.1765 0.1804);fill-opacity:1;"/>
<path d="M84.2724 272.055C86.4884 272.055 88.2851 270.263 88.2851 268.054C88.2851 265.844 86.4884 264.053 84.2724 264.053C82.056 264.053 80.2593 265.844 80.2593 268.054C80.2593 270.263 82.056 272.055 84.2724 272.055Z" fill="#2C2D2E" style="fill:#2C2D2E;fill:color(display-p3 0.1725 0.1765 0.1804);fill-opacity:1;"/>
<path d="M104.337 280.056V276.055C104.337 273.844 102.542 272.054 100.324 272.054C98.1062 272.054 96.3113 273.844 96.3113 276.055V284.057C96.3113 286.268 98.1062 288.058 100.324 288.058C102.542 288.058 104.337 286.268 104.337 284.057V280.056Z" fill="#2C2D2E" style="fill:#2C2D2E;fill:color(display-p3 0.1725 0.1765 0.1804);fill-opacity:1;"/>
<path d="M100.324 304.061C102.54 304.061 104.337 302.27 104.337 300.06C104.337 297.85 102.54 296.059 100.324 296.059C98.108 296.059 96.3113 297.85 96.3113 300.06C96.3113 302.27 98.108 304.061 100.324 304.061Z" fill="#2C2D2E" style="fill:#2C2D2E;fill:color(display-p3 0.1725 0.1765 0.1804);fill-opacity:1;"/>
<path d="M100.324 320.064H96.3113V308.062C96.3113 305.851 94.5163 304.061 92.2982 304.061H88.2854V300.06C88.2854 297.849 86.4905 296.059 84.2724 296.059H68.2204C66.0026 296.059 64.2076 297.849 64.2076 300.06V308.062C64.2076 310.273 66.0026 312.063 68.2204 312.063H88.2854V324.065C88.2854 326.276 90.0804 328.066 92.2982 328.066H100.324C102.542 328.066 104.337 326.276 104.337 324.065C104.337 321.854 102.542 320.064 100.324 320.064Z" fill="#2C2D2E" style="fill:#2C2D2E;fill:color(display-p3 0.1725 0.1765 0.1804);fill-opacity:1;"/>
<path d="M108.35 152.031C110.566 152.031 112.363 150.239 112.363 148.03C112.363 145.82 110.566 144.029 108.35 144.029C106.134 144.029 104.337 145.82 104.337 148.03C104.337 150.239 106.134 152.031 108.35 152.031Z" fill="#2C2D2E" style="fill:#2C2D2E;fill:color(display-p3 0.1725 0.1765 0.1804);fill-opacity:1;"/>
<path d="M112.363 240.048V200.04H120.389V204.041C120.389 206.252 122.184 208.042 124.402 208.042C126.62 208.042 128.415 206.252 128.415 204.041V196.039C128.415 193.828 126.62 192.038 124.402 192.038H112.363V188.038C112.363 185.826 110.568 184.037 108.35 184.037C106.132 184.037 104.337 185.826 104.337 188.038V192.038H96.3112V188.038C96.3112 185.826 94.5163 184.037 92.2982 184.037C90.08 184.037 88.2851 185.826 88.2851 188.038V192.038H76.2462C74.0284 192.038 72.2334 193.828 72.2334 196.039V200.04H68.2204C66.0022 200.04 64.2073 201.83 64.2073 204.041V208.042H52.1684C49.9505 208.042 48.1556 209.831 48.1556 212.043C48.1556 214.254 49.9505 216.043 52.1684 216.043H56.1815V220.044C56.1815 222.256 57.9764 224.045 60.1945 224.045C62.4124 224.045 64.2073 222.256 64.2073 220.044V216.043H68.2204C70.4385 216.043 72.2334 214.254 72.2334 212.043V208.042H104.337V232.047H100.324C98.1062 232.047 96.3112 233.836 96.3112 236.047C96.3112 238.259 98.1062 240.048 100.324 240.048H104.337V244.049C104.337 246.26 106.132 248.05 108.35 248.05C110.568 248.05 112.363 246.26 112.363 244.049V240.048Z" fill="#2C2D2E" style="fill:#2C2D2E;fill:color(display-p3 0.1725 0.1765 0.1804);fill-opacity:1;"/>
<path d="M108.35 264.053C110.568 264.053 112.363 262.263 112.363 260.052C112.363 257.841 110.568 256.051 108.35 256.051H104.337V252.05C104.337 249.839 102.542 248.05 100.324 248.05C98.1062 248.05 96.3113 249.839 96.3113 252.05V260.052C96.3113 262.263 98.1062 264.053 100.324 264.053H108.35Z" fill="#2C2D2E" style="fill:#2C2D2E;fill:color(display-p3 0.1725 0.1765 0.1804);fill-opacity:1;"/>
<path d="M108.35 320.064C110.566 320.064 112.363 318.273 112.363 316.064C112.363 313.854 110.566 312.063 108.35 312.063C106.134 312.063 104.337 313.854 104.337 316.064C104.337 318.273 106.134 320.064 108.35 320.064Z" fill="#2C2D2E" style="fill:#2C2D2E;fill:color(display-p3 0.1725 0.1765 0.1804);fill-opacity:1;"/>
<path d="M116.376 56.0112C118.594 56.0112 120.389 54.2217 120.389 52.0102V44.0087C120.389 41.7973 118.594 40.0082 116.376 40.0082C114.158 40.0082 112.363 41.7973 112.363 44.0087V52.0102C112.363 54.2217 114.158 56.0112 116.376 56.0112Z" fill="#2C2D2E" style="fill:#2C2D2E;fill:color(display-p3 0.1725 0.1765 0.1804);fill-opacity:1;"/>
<path d="M112.363 72.0145V76.0151C112.363 78.2265 114.158 80.016 116.376 80.016C118.594 80.016 120.389 78.2265 120.389 76.0151V72.0145H124.402C126.62 72.0145 128.415 70.225 128.415 68.0136V60.0121C128.415 57.8006 126.62 56.0112 124.402 56.0112C122.184 56.0112 120.389 57.8006 120.389 60.0121V64.013H116.376C114.158 64.013 112.363 65.8021 112.363 68.0136V72.0145Z" fill="#2C2D2E" style="fill:#2C2D2E;fill:color(display-p3 0.1725 0.1765 0.1804);fill-opacity:1;"/>
<path d="M116.376 136.027C118.592 136.027 120.389 134.236 120.389 132.026C120.389 129.817 118.592 128.026 116.376 128.026C114.159 128.026 112.363 129.817 112.363 132.026C112.363 134.236 114.159 136.027 116.376 136.027Z" fill="#2C2D2E" style="fill:#2C2D2E;fill:color(display-p3 0.1725 0.1765 0.1804);fill-opacity:1;"/>
<path d="M116.376 160.032H124.402C126.62 160.032 128.415 158.243 128.415 156.031C128.415 153.82 126.62 152.031 124.402 152.031H116.376C114.158 152.031 112.363 153.82 112.363 156.031C112.363 158.243 114.158 160.032 116.376 160.032Z" fill="#2C2D2E" style="fill:#2C2D2E;fill:color(display-p3 0.1725 0.1765 0.1804);fill-opacity:1;"/>
<path d="M116.376 256.051C118.592 256.051 120.389 254.26 120.389 252.05C120.389 249.841 118.592 248.05 116.376 248.05C114.159 248.05 112.363 249.841 112.363 252.05C112.363 254.26 114.159 256.051 116.376 256.051Z" fill="#2C2D2E" style="fill:#2C2D2E;fill:color(display-p3 0.1725 0.1765 0.1804);fill-opacity:1;"/>
<path d="M116.376 328.066C118.592 328.066 120.389 326.275 120.389 324.065C120.389 321.855 118.592 320.064 116.376 320.064C114.159 320.064 112.363 321.855 112.363 324.065C112.363 326.275 114.159 328.066 116.376 328.066Z" fill="#2C2D2E" style="fill:#2C2D2E;fill:color(display-p3 0.1725 0.1765 0.1804);fill-opacity:1;"/>
<path d="M124.402 112.022H132.428C134.646 112.022 136.441 110.233 136.441 108.022V104.021H140.454C142.672 104.021 144.467 102.231 144.467 100.02C144.467 97.8089 142.672 96.0194 140.454 96.0194H132.428C130.21 96.0194 128.415 97.8089 128.415 100.02V104.021H124.402C122.184 104.021 120.389 105.81 120.389 108.022C120.389 110.233 122.184 112.022 124.402 112.022Z" fill="#2C2D2E" style="fill:#2C2D2E;fill:color(display-p3 0.1725 0.1765 0.1804);fill-opacity:1;"/>
<path d="M124.402 128.026H128.415V132.027C128.415 134.238 130.21 136.028 132.428 136.028C134.646 136.028 136.441 134.238 136.441 132.027V124.025C136.441 121.814 134.646 120.024 132.428 120.024H124.402C122.184 120.024 120.389 121.814 120.389 124.025C120.389 126.236 122.184 128.026 124.402 128.026Z" fill="#2C2D2E" style="fill:#2C2D2E;fill:color(display-p3 0.1725 0.1765 0.1804);fill-opacity:1;"/>
<path d="M124.402 224.045C126.618 224.045 128.415 222.254 128.415 220.044C128.415 217.834 126.618 216.043 124.402 216.043C122.186 216.043 120.389 217.834 120.389 220.044C120.389 222.254 122.186 224.045 124.402 224.045Z" fill="#2C2D2E" style="fill:#2C2D2E;fill:color(display-p3 0.1725 0.1765 0.1804);fill-opacity:1;"/>
<path d="M124.402 264.053C126.618 264.053 128.415 262.262 128.415 260.052C128.415 257.843 126.618 256.051 124.402 256.051C122.186 256.051 120.389 257.843 120.389 260.052C120.389 262.262 122.186 264.053 124.402 264.053Z" fill="#2C2D2E" style="fill:#2C2D2E;fill:color(display-p3 0.1725 0.1765 0.1804);fill-opacity:1;"/>
<path d="M124.402 272.054H116.376C114.158 272.054 112.363 273.844 112.363 276.055V292.059C112.363 294.27 114.158 296.059 116.376 296.059C118.594 296.059 120.389 294.27 120.389 292.059V280.056H124.402C126.62 280.056 128.415 278.267 128.415 276.055C128.415 273.844 126.62 272.054 124.402 272.054Z" fill="#2C2D2E" style="fill:#2C2D2E;fill:color(display-p3 0.1725 0.1765 0.1804);fill-opacity:1;"/>
<path d="M132.428 8.0016H136.441V12.0024C136.441 14.2138 138.236 16.0032 140.454 16.0032H152.493V36.0073C152.493 38.2187 154.288 40.0082 156.505 40.0082H164.532C166.749 40.0082 168.544 38.2187 168.544 36.0073C168.544 33.7959 166.749 32.0064 164.532 32.0064H160.518V8.0016H164.532C166.749 8.0016 168.544 6.21216 168.544 4.00082C168.544 1.78945 166.749 0 164.532 0H156.505C154.288 0 152.493 1.78945 152.493 4.00082V8.0016H144.466V4.00082C144.466 1.78945 142.672 0 140.454 0H132.428C130.21 0 128.415 1.78945 128.415 4.00082C128.415 6.21216 130.21 8.0016 132.428 8.0016Z" fill="#2C2D2E" style="fill:#2C2D2E;fill:color(display-p3 0.1725 0.1765 0.1804);fill-opacity:1;"/>
<path d="M132.428 56.0112C134.644 56.0112 136.441 54.2199 136.441 52.0106C136.441 49.8009 134.644 48.0097 132.428 48.0097C130.212 48.0097 128.415 49.8009 128.415 52.0106C128.415 54.2199 130.212 56.0112 132.428 56.0112Z" fill="#2C2D2E" style="fill:#2C2D2E;fill:color(display-p3 0.1725 0.1765 0.1804);fill-opacity:1;"/>
<path d="M128.415 80.016V84.0169C128.415 86.2284 130.21 88.0175 132.428 88.0175C134.646 88.0175 136.441 86.2284 136.441 84.0169V76.0154C136.441 73.804 134.646 72.0145 132.428 72.0145C130.21 72.0145 128.415 73.804 128.415 76.0154V80.016Z" fill="#2C2D2E" style="fill:#2C2D2E;fill:color(display-p3 0.1725 0.1765 0.1804);fill-opacity:1;"/>
<path d="M132.428 176.035C130.21 176.035 128.415 177.825 128.415 180.036V188.038C128.415 190.249 130.21 192.038 132.428 192.038H140.454C142.672 192.038 144.466 190.249 144.466 188.038V184.037H152.493V192.038H148.48C146.261 192.038 144.466 193.828 144.466 196.039C144.466 198.251 146.261 200.04 148.48 200.04H168.544V212.043C168.544 214.254 170.339 216.043 172.557 216.043H180.583C182.801 216.043 184.596 214.254 184.596 212.043C184.596 209.831 182.801 208.042 180.583 208.042H176.57V196.039C176.57 193.828 174.775 192.038 172.557 192.038H168.544V188.038C168.544 185.826 166.749 184.037 164.532 184.037H160.518V180.036C160.518 177.825 158.724 176.035 156.505 176.035H144.466V168.034H148.48C150.698 168.034 152.493 166.244 152.493 164.033C152.493 161.821 150.698 160.032 148.48 160.032H144.466V156.031C144.466 153.82 142.672 152.031 140.454 152.031C138.236 152.031 136.441 153.82 136.441 156.031V160.032H132.428C130.21 160.032 128.415 161.821 128.415 164.033C128.415 166.244 130.21 168.034 132.428 168.034H136.441V176.035H132.428Z" fill="#2C2D2E" style="fill:#2C2D2E;fill:color(display-p3 0.1725 0.1765 0.1804);fill-opacity:1;"/>
<path d="M132.428 216.043C134.644 216.043 136.441 214.252 136.441 212.043C136.441 209.833 134.644 208.042 132.428 208.042C130.212 208.042 128.415 209.833 128.415 212.043C128.415 214.252 130.212 216.043 132.428 216.043Z" fill="#2C2D2E" style="fill:#2C2D2E;fill:color(display-p3 0.1725 0.1765 0.1804);fill-opacity:1;"/>
<path d="M132.428 304.061C134.644 304.061 136.441 302.27 136.441 300.06C136.441 297.85 134.644 296.059 132.428 296.059C130.212 296.059 128.415 297.85 128.415 300.06C128.415 302.27 130.212 304.061 132.428 304.061Z" fill="#2C2D2E" style="fill:#2C2D2E;fill:color(display-p3 0.1725 0.1765 0.1804);fill-opacity:1;"/>
<path d="M140.454 72.0145C142.67 72.0145 144.467 70.2233 144.467 68.0136C144.467 65.8039 142.67 64.0127 140.454 64.0127C138.237 64.0127 136.441 65.8039 136.441 68.0136C136.441 70.2233 138.237 72.0145 140.454 72.0145Z" fill="#2C2D2E" style="fill:#2C2D2E;fill:color(display-p3 0.1725 0.1765 0.1804);fill-opacity:1;"/>
<path d="M140.454 208.042C142.67 208.042 144.467 206.25 144.467 204.041C144.467 201.831 142.67 200.04 140.454 200.04C138.237 200.04 136.441 201.831 136.441 204.041C136.441 206.25 138.237 208.042 140.454 208.042Z" fill="#2C2D2E" style="fill:#2C2D2E;fill:color(display-p3 0.1725 0.1765 0.1804);fill-opacity:1;"/>
<path d="M140.454 264.053C142.67 264.053 144.467 262.262 144.467 260.052C144.467 257.843 142.67 256.051 140.454 256.051C138.237 256.051 136.441 257.843 136.441 260.052C136.441 262.262 138.237 264.053 140.454 264.053Z" fill="#2C2D2E" style="fill:#2C2D2E;fill:color(display-p3 0.1725 0.1765 0.1804);fill-opacity:1;"/>
<path d="M140.454 288.058C142.672 288.058 144.466 286.268 144.466 284.057V280.056H148.48C150.698 280.056 152.493 278.267 152.493 276.055C152.493 273.844 150.698 272.054 148.48 272.054H140.454C138.236 272.054 136.441 273.844 136.441 276.055V280.056H132.428C130.21 280.056 128.415 281.846 128.415 284.057C128.415 286.268 130.21 288.058 132.428 288.058H140.454Z" fill="#2C2D2E" style="fill:#2C2D2E;fill:color(display-p3 0.1725 0.1765 0.1804);fill-opacity:1;"/>
<path d="M148.48 40.0082H140.454C138.236 40.0082 136.441 41.7973 136.441 44.0087C136.441 46.2202 138.236 48.0097 140.454 48.0097H144.467V60.0121C144.467 62.2235 146.261 64.0127 148.48 64.0127C150.698 64.0127 152.493 62.2235 152.493 60.0121V44.0087C152.493 41.7973 150.698 40.0082 148.48 40.0082Z" fill="#2C2D2E" style="fill:#2C2D2E;fill:color(display-p3 0.1725 0.1765 0.1804);fill-opacity:1;"/>
<path d="M148.48 80.016C150.696 80.016 152.493 78.2248 152.493 76.0155C152.493 73.8058 150.696 72.0145 148.48 72.0145C146.263 72.0145 144.467 73.8058 144.467 76.0155C144.467 78.2248 146.263 80.016 148.48 80.016Z" fill="#2C2D2E" style="fill:#2C2D2E;fill:color(display-p3 0.1725 0.1765 0.1804);fill-opacity:1;"/>
<path d="M148.48 96.0194C150.696 96.0194 152.493 94.2281 152.493 92.0185C152.493 89.8088 150.696 88.0179 148.48 88.0179C146.263 88.0179 144.467 89.8088 144.467 92.0185C144.467 94.2281 146.263 96.0194 148.48 96.0194Z" fill="#2C2D2E" style="fill:#2C2D2E;fill:color(display-p3 0.1725 0.1765 0.1804);fill-opacity:1;"/>
<path d="M148.48 128.026C146.262 128.026 144.467 129.815 144.467 132.026V148.03C144.467 150.241 146.262 152.031 148.48 152.031C150.698 152.031 152.493 150.241 152.493 148.03V132.026C152.493 129.815 150.698 128.026 148.48 128.026Z" fill="#2C2D2E" style="fill:#2C2D2E;fill:color(display-p3 0.1725 0.1765 0.1804);fill-opacity:1;"/>
<path d="M156.505 72.0145C158.722 72.0145 160.518 70.2233 160.518 68.0136C160.518 65.8039 158.722 64.0127 156.505 64.0127C154.289 64.0127 152.493 65.8039 152.493 68.0136C152.493 70.2233 154.289 72.0145 156.505 72.0145Z" fill="#2C2D2E" style="fill:#2C2D2E;fill:color(display-p3 0.1725 0.1765 0.1804);fill-opacity:1;"/>
<path d="M156.505 88.0175C158.722 88.0175 160.518 86.2263 160.518 84.017C160.518 81.8073 158.722 80.016 156.505 80.016C154.289 80.016 152.493 81.8073 152.493 84.017C152.493 86.2263 154.289 88.0175 156.505 88.0175Z" fill="#2C2D2E" style="fill:#2C2D2E;fill:color(display-p3 0.1725 0.1765 0.1804);fill-opacity:1;"/>
<path d="M156.505 128.026C158.722 128.026 160.518 126.234 160.518 124.025C160.518 121.815 158.722 120.024 156.505 120.024C154.289 120.024 152.493 121.815 152.493 124.025C152.493 126.234 154.289 128.026 156.505 128.026Z" fill="#2C2D2E" style="fill:#2C2D2E;fill:color(display-p3 0.1725 0.1765 0.1804);fill-opacity:1;"/>
<path d="M156.505 288.058C158.722 288.058 160.518 286.267 160.518 284.057C160.518 281.848 158.722 280.056 156.505 280.056C154.289 280.056 152.493 281.848 152.493 284.057C152.493 286.267 154.289 288.058 156.505 288.058Z" fill="#2C2D2E" style="fill:#2C2D2E;fill:color(display-p3 0.1725 0.1765 0.1804);fill-opacity:1;"/>
<path d="M164.532 56.0112C166.748 56.0112 168.544 54.2199 168.544 52.0106C168.544 49.8009 166.748 48.0097 164.532 48.0097C162.315 48.0097 160.518 49.8009 160.518 52.0106C160.518 54.2199 162.315 56.0112 164.532 56.0112Z" fill="#2C2D2E" style="fill:#2C2D2E;fill:color(display-p3 0.1725 0.1765 0.1804);fill-opacity:1;"/>
<path d="M164.532 144.029C162.313 144.029 160.518 145.818 160.518 148.03V164.033C160.518 166.244 162.313 168.033 164.532 168.033C166.749 168.033 168.544 166.244 168.544 164.033V152.031H184.596V156.031C184.596 158.243 186.391 160.032 188.609 160.032H196.635C198.853 160.032 200.648 158.243 200.648 156.031C200.648 153.82 198.853 152.031 196.635 152.031H192.622V148.03C192.622 145.818 190.827 144.029 188.609 144.029H184.596V140.028C184.596 137.817 182.801 136.027 180.583 136.027C178.365 136.027 176.57 137.817 176.57 140.028V144.029H164.532Z" fill="#2C2D2E" style="fill:#2C2D2E;fill:color(display-p3 0.1725 0.1765 0.1804);fill-opacity:1;"/>
<path d="M164.532 240.048H172.557C174.776 240.048 176.57 238.259 176.57 236.048V228.046C176.57 225.835 174.776 224.045 172.557 224.045H168.545V220.044C168.545 217.833 166.75 216.043 164.532 216.043H160.518V212.043C160.518 209.831 158.724 208.042 156.506 208.042H148.48C146.262 208.042 144.467 209.831 144.467 212.043C144.467 214.254 146.262 216.043 148.48 216.043H152.493V224.045H148.48C146.262 224.045 144.467 225.835 144.467 228.046V232.047H136.441V228.046C136.441 225.835 134.646 224.045 132.428 224.045C130.21 224.045 128.415 225.835 128.415 228.046V232.047H124.402C122.184 232.047 120.389 233.836 120.389 236.048C120.389 238.259 122.184 240.048 124.402 240.048H128.415V244.049C128.415 246.26 130.21 248.05 132.428 248.05H140.454C142.672 248.05 144.467 246.26 144.467 244.049V240.048H148.48C150.698 240.048 152.493 238.259 152.493 236.048V232.047H160.518V236.048C160.518 238.259 162.313 240.048 164.532 240.048Z" fill="#2C2D2E" style="fill:#2C2D2E;fill:color(display-p3 0.1725 0.1765 0.1804);fill-opacity:1;"/>
<path d="M164.532 312.063C166.75 312.063 168.545 310.273 168.545 308.062V300.06C168.545 297.849 166.75 296.059 164.532 296.059H152.493V292.059C152.493 289.847 150.698 288.058 148.48 288.058C146.262 288.058 144.467 289.847 144.467 292.059V300.06C144.467 302.272 146.262 304.061 148.48 304.061H160.518V308.062C160.518 310.273 162.313 312.063 164.532 312.063Z" fill="#2C2D2E" style="fill:#2C2D2E;fill:color(display-p3 0.1725 0.1765 0.1804);fill-opacity:1;"/>
<path d="M168.545 24.0048V28.0056C168.545 30.217 170.34 32.0064 172.557 32.0064H176.57V40.0082H172.557C170.34 40.0082 168.545 41.7973 168.545 44.0088C168.545 46.2202 170.34 48.0097 172.557 48.0097H176.57V52.0106C176.57 54.2217 178.365 56.0112 180.584 56.0112C182.801 56.0112 184.596 54.2217 184.596 52.0106V40.0082H188.609C190.828 40.0082 192.622 38.2187 192.622 36.0073V32.0064H196.635C198.853 32.0064 200.648 30.217 200.648 28.0056V8.0016H204.661C206.879 8.0016 208.674 6.21216 208.674 4.00082C208.674 1.78945 206.879 0 204.661 0H180.584C178.365 0 176.57 1.78945 176.57 4.00082V16.0032H172.557C170.34 16.0032 168.545 17.7927 168.545 20.004V24.0048ZM192.622 16.0032V24.0048H184.596V16.0032H192.622Z" fill="#2C2D2E" style="fill:#2C2D2E;fill:color(display-p3 0.1725 0.1765 0.1804);fill-opacity:1;"/>
<path d="M172.557 136.027C174.774 136.027 176.57 134.236 176.57 132.026C176.57 129.817 174.774 128.026 172.557 128.026C170.341 128.026 168.545 129.817 168.545 132.026C168.545 134.236 170.341 136.027 172.557 136.027Z" fill="#2C2D2E" style="fill:#2C2D2E;fill:color(display-p3 0.1725 0.1765 0.1804);fill-opacity:1;"/>
<path d="M180.584 184.037C182.801 184.037 184.596 182.247 184.596 180.036V172.034C184.596 169.823 182.801 168.034 180.584 168.034H172.557C170.34 168.034 168.545 169.823 168.545 172.034C168.545 174.246 170.34 176.035 172.557 176.035H176.57V180.036C176.57 182.247 178.365 184.037 180.584 184.037Z" fill="#2C2D2E" style="fill:#2C2D2E;fill:color(display-p3 0.1725 0.1765 0.1804);fill-opacity:1;"/>
<path d="M180.584 256.051C182.8 256.051 184.596 254.26 184.596 252.05C184.596 249.841 182.8 248.05 180.584 248.05C178.367 248.05 176.57 249.841 176.57 252.05C176.57 254.26 178.367 256.051 180.584 256.051Z" fill="#2C2D2E" style="fill:#2C2D2E;fill:color(display-p3 0.1725 0.1765 0.1804);fill-opacity:1;"/>
<path d="M188.609 192.038C190.825 192.038 192.622 190.247 192.622 188.038C192.622 185.828 190.825 184.037 188.609 184.037C186.393 184.037 184.596 185.828 184.596 188.038C184.596 190.247 186.393 192.038 188.609 192.038Z" fill="#2C2D2E" style="fill:#2C2D2E;fill:color(display-p3 0.1725 0.1765 0.1804);fill-opacity:1;"/>
<path d="M188.609 232.047C190.825 232.047 192.622 230.255 192.622 228.046C192.622 225.836 190.825 224.045 188.609 224.045C186.393 224.045 184.596 225.836 184.596 228.046C184.596 230.255 186.393 232.047 188.609 232.047Z" fill="#2C2D2E" style="fill:#2C2D2E;fill:color(display-p3 0.1725 0.1765 0.1804);fill-opacity:1;"/>
<path d="M188.609 248.05C190.825 248.05 192.622 246.259 192.622 244.049C192.622 241.839 190.825 240.048 188.609 240.048C186.393 240.048 184.596 241.839 184.596 244.049C184.596 246.259 186.393 248.05 188.609 248.05Z" fill="#2C2D2E" style="fill:#2C2D2E;fill:color(display-p3 0.1725 0.1765 0.1804);fill-opacity:1;"/>
<path d="M184.596 284.057C184.596 286.268 186.391 288.058 188.609 288.058H196.635C198.853 288.058 200.648 286.268 200.648 284.057V272.055H204.661C206.879 272.055 208.674 270.265 208.674 268.054C208.674 265.842 206.879 264.053 204.661 264.053H200.648V260.052C200.648 257.841 198.853 256.051 196.635 256.051H188.609C186.391 256.051 184.596 257.841 184.596 260.052V264.053H176.57V260.052C176.57 257.841 174.776 256.051 172.557 256.051C170.339 256.051 168.544 257.841 168.544 260.052V264.053H160.518V256.051H164.532C166.749 256.051 168.544 254.262 168.544 252.05C168.544 249.839 166.749 248.05 164.532 248.05H156.505C154.288 248.05 152.493 249.839 152.493 252.05V268.054C152.493 270.265 154.288 272.055 156.505 272.055H160.518V276.055C160.518 278.267 162.313 280.056 164.532 280.056H168.544V284.057C168.544 286.268 170.339 288.058 172.557 288.058C174.776 288.058 176.57 286.268 176.57 284.057V272.055H184.596V284.057Z" fill="#2C2D2E" style="fill:#2C2D2E;fill:color(display-p3 0.1725 0.1765 0.1804);fill-opacity:1;"/>
<path d="M188.609 328.066C190.825 328.066 192.622 326.275 192.622 324.065C192.622 321.855 190.825 320.064 188.609 320.064C186.393 320.064 184.596 321.855 184.596 324.065C184.596 326.275 186.393 328.066 188.609 328.066Z" fill="#2C2D2E" style="fill:#2C2D2E;fill:color(display-p3 0.1725 0.1765 0.1804);fill-opacity:1;"/>
<path d="M196.635 184.037C198.852 184.037 200.648 182.246 200.648 180.036C200.648 177.827 198.852 176.035 196.635 176.035C194.419 176.035 192.622 177.827 192.622 180.036C192.622 182.246 194.419 184.037 196.635 184.037Z" fill="#2C2D2E" style="fill:#2C2D2E;fill:color(display-p3 0.1725 0.1765 0.1804);fill-opacity:1;"/>
<path d="M196.635 224.045C198.852 224.045 200.648 222.254 200.648 220.044C200.648 217.834 198.852 216.043 196.635 216.043C194.419 216.043 192.622 217.834 192.622 220.044C192.622 222.254 194.419 224.045 196.635 224.045Z" fill="#2C2D2E" style="fill:#2C2D2E;fill:color(display-p3 0.1725 0.1765 0.1804);fill-opacity:1;"/>
<path d="M196.635 240.048C198.852 240.048 200.648 238.257 200.648 236.047C200.648 233.838 198.852 232.047 196.635 232.047C194.419 232.047 192.622 233.838 192.622 236.047C192.622 238.257 194.419 240.048 196.635 240.048Z" fill="#2C2D2E" style="fill:#2C2D2E;fill:color(display-p3 0.1725 0.1765 0.1804);fill-opacity:1;"/>
<path d="M196.635 320.064C198.852 320.064 200.648 318.273 200.648 316.064C200.648 313.854 198.852 312.063 196.635 312.063C194.419 312.063 192.622 313.854 192.622 316.064C192.622 318.273 194.419 320.064 196.635 320.064Z" fill="#2C2D2E" style="fill:#2C2D2E;fill:color(display-p3 0.1725 0.1765 0.1804);fill-opacity:1;"/>
<path d="M204.661 168.034C206.877 168.034 208.674 166.243 208.674 164.033C208.674 161.823 206.877 160.032 204.661 160.032C202.445 160.032 200.648 161.823 200.648 164.033C200.648 166.243 202.445 168.034 204.661 168.034Z" fill="#2C2D2E" style="fill:#2C2D2E;fill:color(display-p3 0.1725 0.1765 0.1804);fill-opacity:1;"/>
<path d="M204.661 256.051C206.877 256.051 208.674 254.26 208.674 252.05C208.674 249.841 206.877 248.05 204.661 248.05C202.445 248.05 200.648 249.841 200.648 252.05C200.648 254.26 202.445 256.051 204.661 256.051Z" fill="#2C2D2E" style="fill:#2C2D2E;fill:color(display-p3 0.1725 0.1765 0.1804);fill-opacity:1;"/>
<path d="M204.661 296.059H188.609C186.391 296.059 184.596 297.849 184.596 300.06V304.061H180.583C178.365 304.061 176.57 305.851 176.57 308.062V312.063H172.557C170.339 312.063 168.544 313.852 168.544 316.063V320.064H160.518V316.063C160.518 313.852 158.724 312.063 156.505 312.063H148.48C146.261 312.063 144.466 313.852 144.466 316.063V320.064H136.441V316.063C136.441 313.852 134.646 312.063 132.428 312.063C130.21 312.063 128.415 313.852 128.415 316.063V324.065C128.415 326.276 130.21 328.066 132.428 328.066H172.557C174.775 328.066 176.57 326.276 176.57 324.065V320.064H180.583C182.801 320.064 184.596 318.275 184.596 316.063V312.063H188.609C190.827 312.063 192.622 310.273 192.622 308.062V304.061H204.661C206.879 304.061 208.674 302.272 208.674 300.06C208.674 297.849 206.879 296.059 204.661 296.059Z" fill="#2C2D2E" style="fill:#2C2D2E;fill:color(display-p3 0.1725 0.1765 0.1804);fill-opacity:1;"/>
<path d="M208.674 56.0112H200.648V48.0097H204.661C206.879 48.0097 208.674 46.2202 208.674 44.0088V36.0073C208.674 33.7959 206.879 32.0064 204.661 32.0064C202.443 32.0064 200.648 33.7959 200.648 36.0073V40.0082H196.635C194.417 40.0082 192.622 41.7977 192.622 44.0088V56.0112H188.609C186.391 56.0112 184.596 57.8006 184.596 60.0121V64.013H176.57V60.0121C176.57 57.8006 174.776 56.0112 172.557 56.0112C170.339 56.0112 168.544 57.8006 168.544 60.0121V68.0136C168.544 70.225 170.339 72.0145 172.557 72.0145H188.609C190.827 72.0145 192.622 70.225 192.622 68.0136V64.013H200.648V68.0136C200.648 70.225 202.443 72.0145 204.661 72.0145C206.879 72.0145 208.674 70.225 208.674 68.0136V64.013H216.7V68.0136C216.7 70.225 218.495 72.0145 220.713 72.0145H232.752V80.016H200.648V76.0154C200.648 73.804 198.853 72.0145 196.635 72.0145C194.417 72.0145 192.622 73.804 192.622 76.0154V80.016H172.557C170.339 80.016 168.544 81.8055 168.544 84.0169C168.544 86.2284 170.339 88.0179 172.557 88.0179H192.622V96.0194H188.609C186.391 96.0194 184.596 97.8088 184.596 100.02C184.596 102.231 186.391 104.021 188.609 104.021H192.622V112.022H184.596V108.022C184.596 105.81 182.801 104.021 180.583 104.021H164.532C162.313 104.021 160.518 105.81 160.518 108.022C160.518 110.233 162.313 112.022 164.532 112.022H176.57V116.023C176.57 118.235 178.365 120.024 180.583 120.024H184.596V124.025C184.596 126.236 186.391 128.026 188.609 128.026C190.827 128.026 192.622 126.236 192.622 124.025V120.024H196.635C198.853 120.024 200.648 118.235 200.648 116.023V96.0194H204.661C206.879 96.0194 208.674 94.2299 208.674 92.0184V88.0179H240.778V108.022C240.778 110.233 242.573 112.022 244.791 112.022H260.842C263.061 112.022 264.855 110.233 264.855 108.022C264.855 105.81 263.061 104.021 260.842 104.021H256.83V100.02C256.83 97.8088 255.035 96.0194 252.817 96.0194H248.804V84.0169C248.804 81.8055 247.009 80.016 244.791 80.016H240.778V64.013H252.817C255.035 64.013 256.83 62.2235 256.83 60.0121C256.83 57.8006 255.035 56.0112 252.817 56.0112H248.804V52.0106C248.804 49.7991 247.009 48.0097 244.791 48.0097C242.573 48.0097 240.778 49.7991 240.778 52.0106V56.0112H236.765C234.547 56.0112 232.752 57.8006 232.752 60.0121V64.013H224.726V60.0121C224.726 57.8006 222.931 56.0112 220.713 56.0112H216.7V52.0106C216.7 49.7991 214.905 48.0097 212.687 48.0097C210.469 48.0097 208.674 49.7991 208.674 52.0106V56.0112Z" fill="#2C2D2E" style="fill:#2C2D2E;fill:color(display-p3 0.1725 0.1765 0.1804);fill-opacity:1;"/>
<path d="M212.687 112.022C210.469 112.022 208.674 113.812 208.674 116.023V120.024H204.661C202.443 120.024 200.648 121.814 200.648 124.025C200.648 126.236 202.443 128.026 204.661 128.026H212.687C214.905 128.026 216.7 126.236 216.7 124.025V116.023C216.7 113.812 214.905 112.022 212.687 112.022Z" fill="#2C2D2E" style="fill:#2C2D2E;fill:color(display-p3 0.1725 0.1765 0.1804);fill-opacity:1;"/>
<path d="M212.687 184.037C210.469 184.037 208.674 185.826 208.674 188.038V192.038H196.635C194.417 192.038 192.622 193.828 192.622 196.039V200.04H188.609C186.391 200.04 184.596 201.83 184.596 204.041C184.596 206.252 186.391 208.042 188.609 208.042H200.648V212.043C200.648 214.254 202.443 216.043 204.661 216.043C206.879 216.043 208.674 214.254 208.674 212.043V200.04H216.7V204.041C216.7 206.252 218.495 208.042 220.713 208.042C222.931 208.042 224.726 206.252 224.726 204.041V196.039C224.726 193.828 222.931 192.038 220.713 192.038H216.7V188.038C216.7 185.826 214.905 184.037 212.687 184.037Z" fill="#2C2D2E" style="fill:#2C2D2E;fill:color(display-p3 0.1725 0.1765 0.1804);fill-opacity:1;"/>
<path d="M208.674 236.047V244.049C208.674 246.26 210.469 248.05 212.687 248.05H220.713C222.931 248.05 224.726 246.26 224.726 244.049V240.048H228.739C230.957 240.048 232.752 238.259 232.752 236.047C232.752 233.836 230.957 232.047 228.739 232.047H212.687C210.469 232.047 208.674 233.836 208.674 236.047Z" fill="#2C2D2E" style="fill:#2C2D2E;fill:color(display-p3 0.1725 0.1765 0.1804);fill-opacity:1;"/>
<path d="M212.687 280.056C214.903 280.056 216.7 278.265 216.7 276.055C216.7 273.846 214.903 272.054 212.687 272.054C210.471 272.054 208.674 273.846 208.674 276.055C208.674 278.265 210.471 280.056 212.687 280.056Z" fill="#2C2D2E" style="fill:#2C2D2E;fill:color(display-p3 0.1725 0.1765 0.1804);fill-opacity:1;"/>
<path d="M212.687 296.059C214.903 296.059 216.7 294.268 216.7 292.059C216.7 289.849 214.903 288.058 212.687 288.058C210.471 288.058 208.674 289.849 208.674 292.059C208.674 294.268 210.471 296.059 212.687 296.059Z" fill="#2C2D2E" style="fill:#2C2D2E;fill:color(display-p3 0.1725 0.1765 0.1804);fill-opacity:1;"/>
<path d="M220.713 8.0016C222.929 8.0016 224.726 6.21038 224.726 4.00082C224.726 1.79122 222.929 0 220.713 0C218.497 0 216.7 1.79122 216.7 4.00082C216.7 6.21038 218.497 8.0016 220.713 8.0016Z" fill="#2C2D2E" style="fill:#2C2D2E;fill:color(display-p3 0.1725 0.1765 0.1804);fill-opacity:1;"/>
<path d="M220.713 32.0064C222.929 32.0064 224.726 30.2152 224.726 28.0056C224.726 25.796 222.929 24.0048 220.713 24.0048C218.497 24.0048 216.7 25.796 216.7 28.0056C216.7 30.2152 218.497 32.0064 220.713 32.0064Z" fill="#2C2D2E" style="fill:#2C2D2E;fill:color(display-p3 0.1725 0.1765 0.1804);fill-opacity:1;"/>
<path d="M224.726 264.053H236.765C238.983 264.053 240.778 262.263 240.778 260.052V252.05C240.778 249.839 238.983 248.05 236.765 248.05C234.547 248.05 232.752 249.839 232.752 252.05V256.051H212.687C210.469 256.051 208.674 257.841 208.674 260.052C208.674 262.263 210.469 264.053 212.687 264.053H224.726Z" fill="#2C2D2E" style="fill:#2C2D2E;fill:color(display-p3 0.1725 0.1765 0.1804);fill-opacity:1;"/>
<path d="M220.713 320.064H212.687C210.469 320.064 208.674 321.854 208.674 324.065C208.674 326.276 210.469 328.066 212.687 328.066H220.713C222.931 328.066 224.726 326.276 224.726 324.065C224.726 321.854 222.931 320.064 220.713 320.064Z" fill="#2C2D2E" style="fill:#2C2D2E;fill:color(display-p3 0.1725 0.1765 0.1804);fill-opacity:1;"/>
<path d="M228.739 24.0048C230.955 24.0048 232.752 22.2136 232.752 20.004C232.752 17.7945 230.955 16.0032 228.739 16.0032C226.523 16.0032 224.726 17.7945 224.726 20.004C224.726 22.2136 226.523 24.0048 228.739 24.0048Z" fill="#2C2D2E" style="fill:#2C2D2E;fill:color(display-p3 0.1725 0.1765 0.1804);fill-opacity:1;"/>
<path d="M228.739 40.0082C230.955 40.0082 232.752 38.2169 232.752 36.0073C232.752 33.7977 230.955 32.0064 228.739 32.0064C226.523 32.0064 224.726 33.7977 224.726 36.0073C224.726 38.2169 226.523 40.0082 228.739 40.0082Z" fill="#2C2D2E" style="fill:#2C2D2E;fill:color(display-p3 0.1725 0.1765 0.1804);fill-opacity:1;"/>
<path d="M228.739 56.0112C230.955 56.0112 232.752 54.2199 232.752 52.0106C232.752 49.8009 230.955 48.0097 228.739 48.0097C226.523 48.0097 224.726 49.8009 224.726 52.0106C224.726 54.2199 226.523 56.0112 228.739 56.0112Z" fill="#2C2D2E" style="fill:#2C2D2E;fill:color(display-p3 0.1725 0.1765 0.1804);fill-opacity:1;"/>
<path d="M224.726 128.026H220.713C218.495 128.026 216.7 129.815 216.7 132.026V140.028C216.7 142.24 218.495 144.029 220.713 144.029C222.931 144.029 224.726 142.24 224.726 140.028V136.027H232.752V140.028C232.752 142.24 234.547 144.029 236.765 144.029C238.983 144.029 240.778 142.24 240.778 140.028V128.026H252.817C255.035 128.026 256.83 126.236 256.83 124.025C256.83 121.813 255.035 120.024 252.817 120.024H240.778V116.023C240.778 113.812 238.983 112.022 236.765 112.022H232.752V108.022C232.752 105.81 230.957 104.021 228.739 104.021C226.521 104.021 224.726 105.81 224.726 108.022V116.023C224.726 118.235 226.521 120.024 228.739 120.024H232.752V128.026H224.726Z" fill="#2C2D2E" style="fill:#2C2D2E;fill:color(display-p3 0.1725 0.1765 0.1804);fill-opacity:1;"/>
<path d="M228.739 192.038C230.955 192.038 232.752 190.247 232.752 188.038C232.752 185.828 230.955 184.037 228.739 184.037C226.523 184.037 224.726 185.828 224.726 188.038C224.726 190.247 226.523 192.038 228.739 192.038Z" fill="#2C2D2E" style="fill:#2C2D2E;fill:color(display-p3 0.1725 0.1765 0.1804);fill-opacity:1;"/>
<path d="M244.791 8.0016C247.007 8.0016 248.804 6.21038 248.804 4.00082C248.804 1.79122 247.007 0 244.791 0C242.574 0 240.778 1.79122 240.778 4.00082C240.778 6.21038 242.574 8.0016 244.791 8.0016Z" fill="#2C2D2E" style="fill:#2C2D2E;fill:color(display-p3 0.1725 0.1765 0.1804);fill-opacity:1;"/>
<path d="M244.791 208.042C247.009 208.042 248.804 206.252 248.804 204.041C248.804 201.83 247.009 200.04 244.791 200.04H236.765C234.547 200.04 232.752 201.83 232.752 204.041V208.042H228.739C226.521 208.042 224.726 209.831 224.726 212.043V216.043H220.713C218.495 216.043 216.7 217.833 216.7 220.044C216.7 222.256 218.495 224.045 220.713 224.045H232.752V228.046C232.752 230.257 234.547 232.047 236.765 232.047H244.791C247.009 232.047 248.804 230.257 248.804 228.046V220.044C248.804 217.833 247.009 216.043 244.791 216.043H240.778V208.042H244.791Z" fill="#2C2D2E" style="fill:#2C2D2E;fill:color(display-p3 0.1725 0.1765 0.1804);fill-opacity:1;"/>
<path d="M248.804 24.0048V28.0056C248.804 30.217 250.599 32.0064 252.817 32.0064H256.83V36.0073C256.83 38.2187 258.625 40.0082 260.843 40.0082C263.061 40.0082 264.855 38.2187 264.855 36.0073V20.004C264.855 17.7927 263.061 16.0032 260.843 16.0032H252.817C250.599 16.0032 248.804 17.7927 248.804 20.004V24.0048Z" fill="#2C2D2E" style="fill:#2C2D2E;fill:color(display-p3 0.1725 0.1765 0.1804);fill-opacity:1;"/>
<path d="M252.817 144.029C255.033 144.029 256.83 142.238 256.83 140.028C256.83 137.818 255.033 136.027 252.817 136.027C250.601 136.027 248.804 137.818 248.804 140.028C248.804 142.238 250.601 144.029 252.817 144.029Z" fill="#2C2D2E" style="fill:#2C2D2E;fill:color(display-p3 0.1725 0.1765 0.1804);fill-opacity:1;"/>
<path d="M252.817 176.035C250.599 176.035 248.804 177.825 248.804 180.036V188.038C248.804 190.249 250.599 192.038 252.817 192.038H260.843C263.061 192.038 264.855 190.249 264.855 188.038C264.855 185.826 263.061 184.037 260.843 184.037H256.83V180.036C256.83 177.825 255.035 176.035 252.817 176.035Z" fill="#2C2D2E" style="fill:#2C2D2E;fill:color(display-p3 0.1725 0.1765 0.1804);fill-opacity:1;"/>
<path d="M252.817 296.059H248.804V284.057C248.804 281.846 247.009 280.056 244.791 280.056H240.778V276.055C240.778 273.844 238.983 272.054 236.765 272.054C234.547 272.054 232.752 273.844 232.752 276.055V280.056H228.739C226.521 280.056 224.726 281.846 224.726 284.057C224.726 286.268 226.521 288.058 228.739 288.058H240.778V312.063H236.765C234.547 312.063 232.752 313.852 232.752 316.063V324.065C232.752 326.276 234.547 328.066 236.765 328.066H244.791C247.009 328.066 248.804 326.276 248.804 324.065V304.061H252.817C255.035 304.061 256.83 302.272 256.83 300.06C256.83 297.849 255.035 296.059 252.817 296.059Z" fill="#2C2D2E" style="fill:#2C2D2E;fill:color(display-p3 0.1725 0.1765 0.1804);fill-opacity:1;"/>
<path d="M260.842 8.0016C263.059 8.0016 264.855 6.21038 264.855 4.00082C264.855 1.79122 263.059 0 260.842 0C258.626 0 256.83 1.79122 256.83 4.00082C256.83 6.21038 258.626 8.0016 260.842 8.0016Z" fill="#2C2D2E" style="fill:#2C2D2E;fill:color(display-p3 0.1725 0.1765 0.1804);fill-opacity:1;"/>
<path d="M260.842 56.0112C263.059 56.0112 264.855 54.2199 264.855 52.0106C264.855 49.8009 263.059 48.0097 260.842 48.0097C258.626 48.0097 256.83 49.8009 256.83 52.0106C256.83 54.2199 258.626 56.0112 260.842 56.0112Z" fill="#2C2D2E" style="fill:#2C2D2E;fill:color(display-p3 0.1725 0.1765 0.1804);fill-opacity:1;"/>
<path d="M260.842 136.027C263.059 136.027 264.855 134.236 264.855 132.026C264.855 129.817 263.059 128.026 260.842 128.026C258.626 128.026 256.83 129.817 256.83 132.026C256.83 134.236 258.626 136.027 260.842 136.027Z" fill="#2C2D2E" style="fill:#2C2D2E;fill:color(display-p3 0.1725 0.1765 0.1804);fill-opacity:1;"/>
<path d="M260.842 208.042C263.059 208.042 264.855 206.25 264.855 204.041C264.855 201.831 263.059 200.04 260.842 200.04C258.626 200.04 256.83 201.831 256.83 204.041C256.83 206.25 258.626 208.042 260.842 208.042Z" fill="#2C2D2E" style="fill:#2C2D2E;fill:color(display-p3 0.1725 0.1765 0.1804);fill-opacity:1;"/>
<path d="M260.842 224.045C263.059 224.045 264.855 222.254 264.855 220.044C264.855 217.834 263.059 216.043 260.842 216.043C258.626 216.043 256.83 217.834 256.83 220.044C256.83 222.254 258.626 224.045 260.842 224.045Z" fill="#2C2D2E" style="fill:#2C2D2E;fill:color(display-p3 0.1725 0.1765 0.1804);fill-opacity:1;"/>
<path d="M264.855 312.063V308.062C264.855 305.851 263.061 304.061 260.842 304.061C258.625 304.061 256.83 305.851 256.83 308.062V316.063C256.83 318.275 258.625 320.064 260.842 320.064C263.061 320.064 264.855 318.275 264.855 316.063V312.063Z" fill="#2C2D2E" style="fill:#2C2D2E;fill:color(display-p3 0.1725 0.1765 0.1804);fill-opacity:1;"/>
<path d="M268.869 216.043C271.085 216.043 272.882 214.252 272.882 212.043C272.882 209.833 271.085 208.042 268.869 208.042C266.652 208.042 264.855 209.833 264.855 212.043C264.855 214.252 266.652 216.043 268.869 216.043Z" fill="#2C2D2E" style="fill:#2C2D2E;fill:color(display-p3 0.1725 0.1765 0.1804);fill-opacity:1;"/>
<path d="M268.869 328.066C271.085 328.066 272.882 326.275 272.882 324.065C272.882 321.855 271.085 320.064 268.869 320.064C266.652 320.064 264.855 321.855 264.855 324.065C264.855 326.275 266.652 328.066 268.869 328.066Z" fill="#2C2D2E" style="fill:#2C2D2E;fill:color(display-p3 0.1725 0.1765 0.1804);fill-opacity:1;"/>
<path d="M276.894 184.037C279.113 184.037 280.907 182.247 280.907 180.036C280.907 177.825 279.113 176.035 276.894 176.035H268.869C266.65 176.035 264.855 177.825 264.855 180.036C264.855 182.247 266.65 184.037 268.869 184.037H276.894Z" fill="#2C2D2E" style="fill:#2C2D2E;fill:color(display-p3 0.1725 0.1765 0.1804);fill-opacity:1;"/>
<path d="M276.894 280.056C279.111 280.056 280.907 278.265 280.907 276.055C280.907 273.846 279.111 272.054 276.894 272.054C274.678 272.054 272.881 273.846 272.881 276.055C272.881 278.265 274.678 280.056 276.894 280.056Z" fill="#2C2D2E" style="fill:#2C2D2E;fill:color(display-p3 0.1725 0.1765 0.1804);fill-opacity:1;"/>
<path d="M276.894 320.064C279.111 320.064 280.907 318.273 280.907 316.064C280.907 313.854 279.111 312.063 276.894 312.063C274.678 312.063 272.881 313.854 272.881 316.064C272.881 318.273 274.678 320.064 276.894 320.064Z" fill="#2C2D2E" style="fill:#2C2D2E;fill:color(display-p3 0.1725 0.1765 0.1804);fill-opacity:1;"/>
<path d="M284.921 72.0145C287.138 72.0145 288.933 70.225 288.933 68.0136C288.933 65.8021 287.138 64.0127 284.921 64.0127H260.843C258.625 64.0127 256.83 65.8021 256.83 68.0136V72.0145H252.817C250.599 72.0145 248.804 73.804 248.804 76.0151C248.804 78.2265 250.599 80.016 252.817 80.016H256.83V92.0184C256.83 94.2299 258.625 96.0194 260.843 96.0194H264.855V100.02C264.855 102.231 266.65 104.021 268.869 104.021H272.882V120.024H268.869C266.65 120.024 264.855 121.813 264.855 124.025C264.855 126.236 266.65 128.026 268.869 128.026H272.882V140.028C272.882 142.24 274.676 144.029 276.894 144.029C279.113 144.029 280.907 142.24 280.907 140.028V128.026H288.933V132.027C288.933 134.238 290.728 136.027 292.946 136.027H300.972C303.19 136.027 304.985 134.238 304.985 132.027V128.026H308.998C311.216 128.026 313.011 126.236 313.011 124.025C313.011 121.813 311.216 120.024 308.998 120.024H280.907V104.021H284.921C287.138 104.021 288.933 102.231 288.933 100.02C288.933 97.8088 287.138 96.0194 284.921 96.0194H272.882V88.0175H292.946C295.165 88.0175 296.959 86.228 296.959 84.0169V80.016H304.985V84.0169C304.985 86.228 306.78 88.0175 308.998 88.0175C311.216 88.0175 313.011 86.228 313.011 84.0169V80.016H317.024C319.242 80.016 321.037 78.2265 321.037 76.0151V68.0136C321.037 65.8021 319.242 64.0127 317.024 64.0127C314.806 64.0127 313.011 65.8021 313.011 68.0136V72.0145H304.985V68.0136C304.985 65.8021 303.19 64.0127 300.972 64.0127C298.754 64.0127 296.959 65.8021 296.959 68.0136V72.0145H292.946C290.728 72.0145 288.933 73.804 288.933 76.0151V80.016H280.907V72.0145H284.921ZM272.882 80.016H264.855V72.0145H272.882V80.016Z" fill="#2C2D2E" style="fill:#2C2D2E;fill:color(display-p3 0.1725 0.1765 0.1804);fill-opacity:1;"/>
<path d="M284.921 216.043C287.137 216.043 288.933 214.252 288.933 212.043C288.933 209.833 287.137 208.042 284.921 208.042C282.704 208.042 280.907 209.833 280.907 212.043C280.907 214.252 282.704 216.043 284.921 216.043Z" fill="#2C2D2E" style="fill:#2C2D2E;fill:color(display-p3 0.1725 0.1765 0.1804);fill-opacity:1;"/>
<path d="M284.921 312.063C287.137 312.063 288.933 310.271 288.933 308.062C288.933 305.852 287.137 304.061 284.921 304.061C282.704 304.061 280.907 305.852 280.907 308.062C280.907 310.271 282.704 312.063 284.921 312.063Z" fill="#2C2D2E" style="fill:#2C2D2E;fill:color(display-p3 0.1725 0.1765 0.1804);fill-opacity:1;"/>
<path d="M292.946 232.047C295.163 232.047 296.959 230.255 296.959 228.046C296.959 225.836 295.163 224.045 292.946 224.045C290.73 224.045 288.933 225.836 288.933 228.046C288.933 230.255 290.73 232.047 292.946 232.047Z" fill="#2C2D2E" style="fill:#2C2D2E;fill:color(display-p3 0.1725 0.1765 0.1804);fill-opacity:1;"/>
<path d="M292.946 328.066C295.163 328.066 296.959 326.275 296.959 324.065C296.959 321.855 295.163 320.064 292.946 320.064C290.73 320.064 288.933 321.855 288.933 324.065C288.933 326.275 290.73 328.066 292.946 328.066Z" fill="#2C2D2E" style="fill:#2C2D2E;fill:color(display-p3 0.1725 0.1765 0.1804);fill-opacity:1;"/>
<path d="M313.011 144.029H317.024C319.242 144.029 321.037 142.239 321.037 140.028V132.026C321.037 129.815 319.242 128.026 317.024 128.026C314.806 128.026 313.011 129.815 313.011 132.026V136.027H308.998C306.78 136.027 304.985 137.817 304.985 140.028V148.03C304.985 150.241 306.78 152.031 308.998 152.031C311.216 152.031 313.011 150.241 313.011 148.03V144.029Z" fill="#2C2D2E" style="fill:#2C2D2E;fill:color(display-p3 0.1725 0.1765 0.1804);fill-opacity:1;"/>
<path d="M308.998 176.035C311.216 176.035 313.011 174.246 313.011 172.034V164.033C313.011 161.822 311.216 160.032 308.998 160.032H296.959V156.031C296.959 153.82 295.164 152.031 292.946 152.031H272.881V148.03C272.881 145.818 271.087 144.029 268.869 144.029C266.65 144.029 264.855 145.818 264.855 148.03V160.032H256.83V156.031C256.83 153.82 255.035 152.031 252.817 152.031H232.752V148.03C232.752 145.818 230.957 144.029 228.739 144.029C226.521 144.029 224.726 145.818 224.726 148.03V168.034H220.713C218.495 168.034 216.7 169.823 216.7 172.034V180.036C216.7 182.247 218.495 184.037 220.713 184.037C222.931 184.037 224.726 182.247 224.726 180.036V176.035H236.765C238.983 176.035 240.778 174.246 240.778 172.034C240.778 169.823 238.983 168.034 236.765 168.034H232.752V160.032H240.778V164.033C240.778 166.244 242.573 168.034 244.791 168.034H288.933V180.036C288.933 182.247 290.728 184.037 292.946 184.037C295.164 184.037 296.959 182.247 296.959 180.036V168.034H304.985V172.034C304.985 174.246 306.78 176.035 308.998 176.035Z" fill="#2C2D2E" style="fill:#2C2D2E;fill:color(display-p3 0.1725 0.1765 0.1804);fill-opacity:1;"/>
<path d="M308.998 216.043C311.214 216.043 313.011 214.252 313.011 212.043C313.011 209.833 311.214 208.042 308.998 208.042C306.782 208.042 304.985 209.833 304.985 212.043C304.985 214.252 306.782 216.043 308.998 216.043Z" fill="#2C2D2E" style="fill:#2C2D2E;fill:color(display-p3 0.1725 0.1765 0.1804);fill-opacity:1;"/>
<path d="M313.011 240.048H325.05C327.268 240.048 329.063 238.259 329.063 236.047C329.063 233.836 327.268 232.047 325.05 232.047H300.972C298.754 232.047 296.959 233.836 296.959 236.047V240.048H272.881V236.047C272.881 233.836 271.086 232.047 268.869 232.047C266.65 232.047 264.856 233.836 264.856 236.047V240.048H256.83V236.047C256.83 233.836 255.035 232.047 252.817 232.047C250.598 232.047 248.804 233.836 248.804 236.047V240.048H244.791C242.573 240.048 240.778 241.837 240.778 244.049C240.778 246.26 242.573 248.05 244.791 248.05H248.804V268.054C248.804 270.265 250.598 272.055 252.817 272.055H256.83V292.059C256.83 294.27 258.625 296.059 260.842 296.059H264.856V300.06C264.856 302.272 266.65 304.061 268.869 304.061C271.086 304.061 272.881 302.272 272.881 300.06V296.059H304.985V308.062C304.985 310.273 306.78 312.063 308.998 312.063C311.216 312.063 313.011 310.273 313.011 308.062V304.061H317.024C319.242 304.061 321.037 302.272 321.037 300.06C321.037 297.849 319.242 296.059 317.024 296.059H313.011V292.059C313.011 289.847 311.216 288.058 308.998 288.058H296.959V280.056H300.972C303.19 280.056 304.985 278.267 304.985 276.055V268.054C304.985 265.842 303.19 264.053 300.972 264.053H296.959V260.052C296.959 257.841 295.164 256.051 292.946 256.051H288.933V248.05H296.959V252.05C296.959 254.262 298.754 256.051 300.972 256.051H313.011V284.057C313.011 286.268 314.806 288.058 317.024 288.058H321.037V292.059C321.037 294.27 322.832 296.059 325.05 296.059C327.268 296.059 329.063 294.27 329.063 292.059V284.057C329.063 281.846 327.268 280.056 325.05 280.056H321.037V272.055H325.05C327.268 272.055 329.063 270.265 329.063 268.054V260.052C329.063 257.841 327.268 256.051 325.05 256.051H321.037V252.05C321.037 249.839 319.242 248.05 317.024 248.05H304.985V240.048H313.011ZM256.83 248.05H264.856V256.051H256.83V248.05ZM288.933 272.055V288.058H264.856V264.053H288.933V272.055ZM280.907 256.051H272.881V248.05H280.907V256.051Z" fill="#2C2D2E" style="fill:#2C2D2E;fill:color(display-p3 0.1725 0.1765 0.1804);fill-opacity:1;"/>
<path d="M308.998 328.066C311.214 328.066 313.011 326.275 313.011 324.065C313.011 321.855 311.214 320.064 308.998 320.064C306.782 320.064 304.985 321.855 304.985 324.065C304.985 326.275 306.782 328.066 308.998 328.066Z" fill="#2C2D2E" style="fill:#2C2D2E;fill:color(display-p3 0.1725 0.1765 0.1804);fill-opacity:1;"/>
<path d="M317.024 224.045C319.24 224.045 321.037 222.254 321.037 220.044C321.037 217.834 319.24 216.043 317.024 216.043C314.808 216.043 313.011 217.834 313.011 220.044C313.011 222.254 314.808 224.045 317.024 224.045Z" fill="#2C2D2E" style="fill:#2C2D2E;fill:color(display-p3 0.1725 0.1765 0.1804);fill-opacity:1;"/>
<path d="M325.05 88.0175C327.266 88.0175 329.063 86.2263 329.063 84.017C329.063 81.8073 327.266 80.016 325.05 80.016C322.834 80.016 321.037 81.8073 321.037 84.017C321.037 86.2263 322.834 88.0175 325.05 88.0175Z" fill="#2C2D2E" style="fill:#2C2D2E;fill:color(display-p3 0.1725 0.1765 0.1804);fill-opacity:1;"/>
<path d="M325.05 104.021H313.011V100.02C313.011 97.8089 311.216 96.0194 308.998 96.0194H300.972C298.754 96.0194 296.959 97.8089 296.959 100.02C296.959 102.231 298.754 104.021 300.972 104.021H304.985V108.022C304.985 110.233 306.78 112.022 308.998 112.022H313.011V116.023C313.011 118.235 314.806 120.024 317.024 120.024C319.242 120.024 321.037 118.235 321.037 116.023V112.022H325.05C327.268 112.022 329.063 110.233 329.063 108.022C329.063 105.81 327.268 104.021 325.05 104.021Z" fill="#2C2D2E" style="fill:#2C2D2E;fill:color(display-p3 0.1725 0.1765 0.1804);fill-opacity:1;"/>
<path d="M325.05 128.026C327.266 128.026 329.063 126.234 329.063 124.025C329.063 121.815 327.266 120.024 325.05 120.024C322.834 120.024 321.037 121.815 321.037 124.025C321.037 126.234 322.834 128.026 325.05 128.026Z" fill="#2C2D2E" style="fill:#2C2D2E;fill:color(display-p3 0.1725 0.1765 0.1804);fill-opacity:1;"/>
<path d="M325.05 176.035C327.266 176.035 329.063 174.244 329.063 172.034C329.063 169.825 327.266 168.034 325.05 168.034C322.834 168.034 321.037 169.825 321.037 172.034C321.037 174.244 322.834 176.035 325.05 176.035Z" fill="#2C2D2E" style="fill:#2C2D2E;fill:color(display-p3 0.1725 0.1765 0.1804);fill-opacity:1;"/>
<path d="M325.05 184.037C322.832 184.037 321.037 185.826 321.037 188.038V192.038H313.011V188.038C313.011 185.826 311.216 184.037 308.998 184.037C306.78 184.037 304.985 185.826 304.985 188.038V192.038H288.933V188.038C288.933 185.826 287.138 184.037 284.921 184.037C282.702 184.037 280.907 185.826 280.907 188.038V196.039C280.907 198.251 282.702 200.04 284.921 200.04H313.011V204.041C313.011 206.252 314.806 208.042 317.024 208.042C319.242 208.042 321.037 206.252 321.037 204.041V200.04H325.05C327.268 200.04 329.063 198.251 329.063 196.039V188.038C329.063 185.826 327.268 184.037 325.05 184.037Z" fill="#2C2D2E" style="fill:#2C2D2E;fill:color(display-p3 0.1725 0.1765 0.1804);fill-opacity:1;"/>
<path d="M325.05 216.043C327.266 216.043 329.063 214.252 329.063 212.043C329.063 209.833 327.266 208.042 325.05 208.042C322.834 208.042 321.037 209.833 321.037 212.043C321.037 214.252 322.834 216.043 325.05 216.043Z" fill="#2C2D2E" style="fill:#2C2D2E;fill:color(display-p3 0.1725 0.1765 0.1804);fill-opacity:1;"/>
<path d="M325.05 312.063H317.024C314.806 312.063 313.011 313.852 313.011 316.064C313.011 318.275 314.806 320.064 317.024 320.064H325.05C327.268 320.064 329.063 318.275 329.063 316.064C329.063 313.852 327.268 312.063 325.05 312.063Z" fill="#2C2D2E" style="fill:#2C2D2E;fill:color(display-p3 0.1725 0.1765 0.1804);fill-opacity:1;"/>
<path d="M20.0648 56.0112H36.1167C47.1997 56.0112 56.1814 47.0566 56.1814 36.0073V20.004C56.1814 8.95452 47.1997 0 36.1167 0H20.0648C8.98174 0 0 8.95452 0 20.004V36.0073C0 47.0566 8.98174 56.0112 20.0648 56.0112ZM8.02592 20.004C8.02592 13.3772 13.4179 8.0016 20.0648 8.0016H36.1167C42.7637 8.0016 48.1556 13.3772 48.1556 20.004V36.0073C48.1556 42.6341 42.7637 48.0097 36.1167 48.0097H20.0648C13.4179 48.0097 8.02592 42.6341 8.02592 36.0073V20.004Z" fill="#2C2D2E" style="fill:#2C2D2E;fill:color(display-p3 0.1725 0.1765 0.1804);fill-opacity:1;"/>
<path d="M28.0909 40.0082C34.7398 40.0082 40.1298 34.6344 40.1298 28.0056C40.1298 21.3769 34.7398 16.0032 28.0909 16.0032C21.442 16.0032 16.052 21.3769 16.052 28.0056C16.052 34.6344 21.442 40.0082 28.0909 40.0082Z" fill="#2C2D2E" style="fill:#2C2D2E;fill:color(display-p3 0.1725 0.1765 0.1804);fill-opacity:1;"/>
<path d="M308.998 0H292.946C281.863 0 272.881 8.95452 272.881 20.004V36.0073C272.881 47.0566 281.863 56.0112 292.946 56.0112H308.998C320.081 56.0112 329.063 47.0566 329.063 36.0073V20.004C329.063 8.95452 320.081 0 308.998 0ZM321.037 36.0073C321.037 42.6341 315.645 48.0097 308.998 48.0097H292.946C286.299 48.0097 280.907 42.6341 280.907 36.0073V20.004C280.907 13.3772 286.299 8.0016 292.946 8.0016H308.998C315.645 8.0016 321.037 13.3772 321.037 20.004V36.0073Z" fill="#2C2D2E" style="fill:#2C2D2E;fill:color(display-p3 0.1725 0.1765 0.1804);fill-opacity:1;"/>
<path d="M300.972 40.0082C307.621 40.0082 313.011 34.6344 313.011 28.0056C313.011 21.3769 307.621 16.0032 300.972 16.0032C294.323 16.0032 288.933 21.3769 288.933 28.0056C288.933 34.6344 294.323 40.0082 300.972 40.0082Z" fill="#2C2D2E" style="fill:#2C2D2E;fill:color(display-p3 0.1725 0.1765 0.1804);fill-opacity:1;"/>
<path d="M36.1167 272.054H20.0648C8.98174 272.054 0 281.009 0 292.059V308.062C0 319.111 8.98174 328.066 20.0648 328.066H36.1167C47.1997 328.066 56.1814 319.111 56.1814 308.062V292.059C56.1814 281.009 47.1997 272.054 36.1167 272.054ZM48.1556 308.062C48.1556 314.688 42.7637 320.064 36.1167 320.064H20.0648C13.4179 320.064 8.02592 314.688 8.02592 308.062V292.059C8.02592 285.432 13.4179 280.056 20.0648 280.056H36.1167C42.7637 280.056 48.1556 285.432 48.1556 292.059V308.062Z" fill="#2C2D2E" style="fill:#2C2D2E;fill:color(display-p3 0.1725 0.1765 0.1804);fill-opacity:1;"/>
<path d="M28.0909 312.063C34.7398 312.063 40.1298 306.689 40.1298 300.06C40.1298 293.432 34.7398 288.058 28.0909 288.058C21.442 288.058 16.052 293.432 16.052 300.06C16.052 306.689 21.442 312.063 28.0909 312.063Z" fill="#2C2D2E" style="fill:#2C2D2E;fill:color(display-p3 0.1725 0.1765 0.1804);fill-opacity:1;"/>
</g>
<defs>
<clipPath id="clip0_3043_17019">
<rect width="330" height="329" fill="white" style="fill:white;fill-opacity:1;"/>
</clipPath>
</defs>
</svg>
