<svg width="20" height="20" viewBox="0 0 20 20" fill="none" xmlns="http://www.w3.org/2000/svg">
<g clip-path="url(#clip0_2193_3642)">
<path d="M15.3034 3.86322C16.6803 5.23999 17.4678 7.09831 17.4994 9.04523C17.531 10.9921 16.8041 12.875 15.4725 14.2957L15.3034 14.4707L11.7675 18.0057C11.3189 18.4541 10.7166 18.7151 10.0827 18.736C9.44874 18.7569 8.83057 18.5361 8.35338 18.1182L8.23338 18.0057L4.69671 14.4699C3.29018 13.0634 2.5 11.1557 2.5 9.16655C2.5 7.17741 3.29018 5.26975 4.69671 3.86322C6.10324 2.45669 8.01091 1.6665 10 1.6665C11.9892 1.6665 13.8968 2.45669 15.3034 3.86322ZM10 6.66655C9.67174 6.66655 9.34665 6.73121 9.04334 6.85685C8.74002 6.98249 8.46443 7.16664 8.23228 7.39878C8.00013 7.63093 7.81598 7.90653 7.69035 8.20984C7.56471 8.51316 7.50005 8.83824 7.50005 9.16655C7.50005 9.49485 7.56471 9.81994 7.69035 10.1233C7.81598 10.4266 8.00013 10.7022 8.23228 10.9343C8.46443 11.1665 8.74002 11.3506 9.04334 11.4762C9.34665 11.6019 9.67174 11.6665 10 11.6665C10.6631 11.6665 11.299 11.4032 11.7678 10.9343C12.2367 10.4655 12.5 9.82959 12.5 9.16655C12.5 8.50351 12.2367 7.86762 11.7678 7.39878C11.299 6.92994 10.6631 6.66655 10 6.66655Z" fill="white" style="fill:white;fill-opacity:1;"/>
</g>
<defs>
<clipPath id="clip0_2193_3642">
<rect width="20" height="20" fill="white" style="fill:white;fill-opacity:1;"/>
</clipPath>
</defs>
</svg>
