<svg width="51" height="51" viewBox="0 0 51 51" fill="none" xmlns="http://www.w3.org/2000/svg">
<rect width="51" height="51" rx="25.5" fill="white" style="fill:white;fill-opacity:1;"/>
<path d="M27.9018 15.7781C25.3244 15.7813 22.8534 16.8067 21.0311 18.6292C19.2086 20.4517 18.1833 22.9226 18.1801 25.4998C18.7157 38.4005 37.0988 38.3898 37.6307 25.4998V25.4996C37.627 22.9212 36.6007 20.4495 34.7767 18.6271C32.9529 16.8046 30.4806 15.7796 27.9023 15.778L27.9018 15.7781ZM28.5775 25.5C28.5792 25.6743 28.5106 25.8423 28.3871 25.9656L26.0978 28.2552C25.839 28.501 25.431 28.4951 25.1796 28.2417C24.9279 27.9885 24.9249 27.5806 25.1727 27.3235L27.2652 25.231L27.2655 20.2847C27.2655 19.9224 27.5592 19.6287 27.9215 19.6287C28.2838 19.6287 28.5775 19.9224 28.5775 20.2847L28.5775 25.5ZM14.3056 17.4C14.3056 17.2259 14.3747 17.0589 14.4978 16.9359C14.6208 16.8131 14.7876 16.7438 14.9616 16.744H19.1535C19.5158 16.744 19.8095 17.0377 19.8095 17.4C19.8095 17.7623 19.5158 18.056 19.1535 18.056H14.9616C14.7876 18.056 14.6208 17.9869 14.4978 17.8639C14.3747 17.7408 14.3056 17.5738 14.3056 17.4ZM12.3376 20.68C12.3376 20.5059 12.4067 20.3389 12.5298 20.2159C12.6528 20.0928 12.8196 20.0238 12.9936 20.024H17.1855C17.5478 20.024 17.8415 20.3177 17.8415 20.68C17.8415 21.0423 17.5478 21.336 17.1855 21.336H12.9936C12.8196 21.336 12.6528 21.2669 12.5298 21.1439C12.4067 21.0208 12.3376 20.8538 12.3376 20.68ZM10.3696 23.9598C10.3696 23.7859 10.4387 23.6189 10.5618 23.4959C10.6848 23.3728 10.8518 23.3038 11.0256 23.304H15.8735C16.2358 23.304 16.5295 23.5977 16.5295 23.9598C16.5295 24.3221 16.2358 24.6158 15.8735 24.6158H11.0256C10.8518 24.616 10.6848 24.5469 10.5618 24.4239C10.4387 24.3008 10.3696 24.1338 10.3696 23.9598ZM19.8096 33.7998C19.8096 33.9738 19.7405 34.1408 19.6177 34.2636C19.4947 34.3867 19.3277 34.4558 19.1536 34.4558H14.9617C14.5994 34.4558 14.3057 34.1621 14.3057 33.7998C14.3057 33.4375 14.5994 33.1438 14.9617 33.1438H19.1536C19.3277 33.1438 19.4947 33.2129 19.6175 33.3359C19.7405 33.459 19.8096 33.6259 19.8096 33.7998ZM17.1856 31.176L12.9938 31.1758C12.6366 31.1689 12.3504 30.8772 12.3504 30.5198C12.3504 30.1623 12.6366 29.8708 12.9938 29.8638H17.1856C17.5431 29.8708 17.8289 30.1623 17.8289 30.5198C17.8289 30.8772 17.5431 31.169 17.1856 31.1758V31.176ZM15.8736 27.896L11.0258 27.8958C10.6634 27.8958 10.3698 27.6021 10.3698 27.2398C10.3698 26.8775 10.6635 26.5838 11.0258 26.5838H15.8736C16.2311 26.5908 16.5172 26.8826 16.5172 27.2398C16.5172 27.5972 16.2311 27.889 15.8736 27.8958V27.896Z" fill="#8992A0" style="fill:#8992A0;fill:color(display-p3 0.5373 0.5725 0.6275);fill-opacity:1;"/>
</svg>
