<svg width="24" height="24" viewBox="0 0 24 24" fill="none" xmlns="http://www.w3.org/2000/svg">
<g clip-path="url(#clip0_2140_6902)">
<path d="M17 3.33989C18.5202 4.21758 19.7826 5.47997 20.6603 7.00017C21.538 8.52038 22 10.2448 22 12.0002C22 13.7556 21.5379 15.48 20.6602 17.0002C19.7825 18.5204 18.5201 19.7828 16.9999 20.6605C15.4797 21.5381 13.7552 22.0002 11.9998 22.0001C10.2445 22.0001 8.52002 21.538 6.99984 20.6603C5.47965 19.7826 4.21729 18.5202 3.33963 17C2.46198 15.4797 1.99996 13.7553 2 11.9999L2.005 11.6759C2.061 9.94888 2.56355 8.26585 3.46364 6.79089C4.36373 5.31592 5.63065 4.09934 7.14089 3.25977C8.65113 2.42021 10.3531 1.98629 12.081 2.00033C13.8089 2.01437 15.5036 2.47589 17 3.33989ZM12.048 12.9989L12.117 12.9929L12.213 12.9769L12.302 12.9539L12.401 12.9159L12.483 12.8759L12.596 12.8029L12.669 12.7429L12.743 12.6689L12.818 12.5749L12.87 12.4949L12.905 12.4249L12.956 12.2929L12.987 12.1579L12.997 12.0759L13 11.9999V6.99989C13 6.73468 12.8946 6.48032 12.7071 6.29279C12.5196 6.10525 12.2652 5.99989 12 5.99989C11.7348 5.99989 11.4804 6.10525 11.2929 6.29279C11.1054 6.48032 11 6.73468 11 6.99989V8.69689L10.832 8.44489C10.696 8.24107 10.49 8.09425 10.2529 8.03232C10.0158 7.97038 9.7643 7.99763 9.546 8.10889L9.446 8.16789C9.33665 8.24069 9.24271 8.33431 9.16955 8.44342C9.09639 8.55254 9.04545 8.67499 9.01964 8.8038C8.99382 8.9326 8.99363 9.06523 9.01909 9.1941C9.04455 9.32298 9.09515 9.44558 9.168 9.55489L11.186 12.5819L11.256 12.6689L11.331 12.7429L11.425 12.8179L11.505 12.8699L11.575 12.9049L11.707 12.9559L11.842 12.9869L11.924 12.9969L12.048 12.9989Z" fill="white" style="fill:white;fill-opacity:1;"/>
</g>
<defs>
<clipPath id="clip0_2140_6902">
<rect width="24" height="24" fill="white" style="fill:white;fill-opacity:1;"/>
</clipPath>
</defs>
</svg>
