<svg width="40" height="40" viewBox="0 0 40 40" fill="none" xmlns="http://www.w3.org/2000/svg">
<rect width="40" height="40" rx="20" fill="#185ADC" style="fill:#185ADC;fill:color(display-p3 0.0958 0.3512 0.8621);fill-opacity:1;"/>
<g clip-path="url(#clip0_1813_7594)">
<path d="M25.997 12.17C26.5827 12.3764 27.09 12.7594 27.4487 13.2663C27.8075 13.7732 28.0001 14.379 28 15V27C28 27.7956 27.6839 28.5587 27.1213 29.1213C26.5587 29.6839 25.7956 30 25 30H15C14.2044 30 13.4413 29.6839 12.8787 29.1213C12.3161 28.5587 12 27.7956 12 27V15C11.9999 14.379 12.1925 13.7732 12.5513 13.2663C12.91 12.7594 13.4173 12.3764 14.003 12.17C14.0468 13.2006 14.4871 14.1744 15.2319 14.8881C15.9767 15.6018 16.9685 16.0002 18 16H22C22.9912 16.0001 23.947 15.6322 24.6824 14.9676C25.4177 14.303 25.8801 13.3891 25.98 12.403L25.997 12.17ZM23 23H17C16.7348 23 16.4804 23.1054 16.2929 23.2929C16.1054 23.4804 16 23.7348 16 24C16 24.2652 16.1054 24.5196 16.2929 24.7071C16.4804 24.8946 16.7348 25 17 25H23C23.2652 25 23.5196 24.8946 23.7071 24.7071C23.8946 24.5196 24 24.2652 24 24C24 23.7348 23.8946 23.4804 23.7071 23.2929C23.5196 23.1054 23.2652 23 23 23ZM23 19H17C16.7348 19 16.4804 19.1054 16.2929 19.2929C16.1054 19.4804 16 19.7348 16 20C16 20.2652 16.1054 20.5196 16.2929 20.7071C16.4804 20.8946 16.7348 21 17 21H23C23.2652 21 23.5196 20.8946 23.7071 20.7071C23.8946 20.5196 24 20.2652 24 20C24 19.7348 23.8946 19.4804 23.7071 19.2929C23.5196 19.1054 23.2652 19 23 19ZM22 10C22.5304 10 23.0391 10.2107 23.4142 10.5858C23.7893 10.9609 24 11.4696 24 12C24 12.5304 23.7893 13.0391 23.4142 13.4142C23.0391 13.7893 22.5304 14 22 14H18C17.4696 14 16.9609 13.7893 16.5858 13.4142C16.2107 13.0391 16 12.5304 16 12C16 11.4696 16.2107 10.9609 16.5858 10.5858C16.9609 10.2107 17.4696 10 18 10H22Z" fill="white" style="fill:white;fill-opacity:1;"/>
</g>
<defs>
<clipPath id="clip0_1813_7594">
<rect width="24" height="24" fill="white" style="fill:white;fill-opacity:1;" transform="translate(8 8)"/>
</clipPath>
</defs>
</svg>
