<svg width="32" height="32" viewBox="0 0 32 32" fill="none" xmlns="http://www.w3.org/2000/svg">
<path d="M19.9018 6.27814C17.3244 6.28131 14.8534 7.3067 13.0311 9.1292C11.2086 10.9517 10.1833 13.4226 10.1801 15.9998C10.7157 28.9005 29.0988 28.8898 29.6307 15.9998V15.9996C29.627 13.4212 28.6007 10.9495 26.7767 9.12708C24.9529 7.30458 22.4806 6.27964 19.9023 6.27795L19.9018 6.27814ZM20.5775 16C20.5792 16.1743 20.5106 16.3423 20.3871 16.4656L18.0978 18.7552C17.839 19.001 17.431 18.9951 17.1796 18.7417C16.9279 18.4885 16.9249 18.0806 17.1727 17.8235L19.2652 15.731L19.2655 10.7847C19.2655 10.4224 19.5592 10.1287 19.9215 10.1287C20.2838 10.1287 20.5775 10.4224 20.5775 10.7847L20.5775 16ZM6.30563 7.90001C6.30563 7.72594 6.37472 7.55895 6.49777 7.4359C6.62082 7.3131 6.78756 7.24376 6.96164 7.244H11.1535C11.5158 7.244 11.8095 7.5377 11.8095 7.9C11.8095 8.26231 11.5158 8.556 11.1535 8.556H6.96164C6.78756 8.556 6.62082 8.48691 6.49777 8.36387C6.37472 8.24082 6.30563 8.07384 6.30563 7.90001ZM4.33763 11.18C4.33763 11.0059 4.40672 10.8389 4.52977 10.7159C4.65281 10.5928 4.81956 10.5238 4.99363 10.524H9.18551C9.54782 10.524 9.84151 10.8177 9.84151 11.18C9.84151 11.5423 9.54781 11.836 9.18551 11.836H4.99363C4.81956 11.836 4.65282 11.7669 4.52977 11.6439C4.40672 11.5208 4.33763 11.3538 4.33763 11.18ZM2.36963 14.4598C2.36963 14.2859 2.43872 14.1189 2.56177 13.9959C2.68481 13.8728 2.8518 13.8038 3.02563 13.804H7.87351C8.23582 13.804 8.52951 14.0977 8.52951 14.4598C8.52951 14.8221 8.23581 15.1158 7.87351 15.1158H3.02563C2.85181 15.116 2.68482 15.0469 2.56177 14.9239C2.43872 14.8008 2.36963 14.6338 2.36963 14.4598ZM11.8096 24.2998C11.8096 24.4738 11.7405 24.6408 11.6177 24.7636C11.4947 24.8867 11.3277 24.9558 11.1536 24.9558H6.96175C6.59944 24.9558 6.30575 24.6621 6.30575 24.2998C6.30575 23.9375 6.59945 23.6438 6.96175 23.6438H11.1536C11.3277 23.6438 11.4947 23.7129 11.6175 23.8359C11.7405 23.959 11.8096 24.1259 11.8096 24.2998ZM9.18563 21.676L4.99375 21.6758C4.63658 21.6689 4.35044 21.3772 4.35044 21.0198C4.35044 20.6623 4.63657 20.3708 4.99375 20.3638H9.18563C9.54305 20.3708 9.82894 20.6623 9.82894 21.0198C9.82894 21.3772 9.54305 21.669 9.18563 21.6758V21.676ZM7.87363 18.396L3.02575 18.3958C2.66345 18.3958 2.36975 18.1021 2.36975 17.7398C2.36975 17.3775 2.66345 17.0838 3.02575 17.0838H7.87363C8.23105 17.0908 8.51719 17.3826 8.51719 17.7398C8.51719 18.0972 8.23106 18.389 7.87363 18.3958V18.396Z" fill="#8992A0" style="fill:#8992A0;fill:color(display-p3 0.5373 0.5725 0.6275);fill-opacity:1;"/>
</svg>
