<svg width="40" height="40" viewBox="0 0 40 40" fill="none" xmlns="http://www.w3.org/2000/svg">
<rect width="40" height="40" rx="20" fill="#185ADC" style="fill:#185ADC;fill:color(display-p3 0.0958 0.3512 0.8621);fill-opacity:1;"/>
<path d="M16.2364 15.338L9.85642 16.263L9.74342 16.286C9.57236 16.3314 9.41641 16.4214 9.29151 16.5468C9.16661 16.6722 9.07722 16.8285 9.03248 16.9997C8.98774 17.1709 8.98925 17.351 9.03685 17.5214C9.08445 17.6919 9.17643 17.8467 9.30342 17.97L13.9254 22.469L12.8354 28.824L12.8224 28.934C12.8119 29.1109 12.8487 29.2874 12.9289 29.4455C13.0091 29.6035 13.1298 29.7374 13.2788 29.8335C13.4277 29.9295 13.5995 29.9843 13.7766 29.9921C13.9536 29.9999 14.1296 29.9605 14.2864 29.878L19.9924 26.878L25.6854 29.878L25.7854 29.924C25.9505 29.989 26.1299 30.0089 26.3052 29.9817C26.4805 29.9545 26.6454 29.8812 26.783 29.7692C26.9206 29.6573 27.026 29.5107 27.0883 29.3446C27.1505 29.1785 27.1675 28.9988 27.1374 28.824L26.0464 22.469L30.6704 17.969L30.7484 17.884C30.8598 17.7467 30.9329 17.5824 30.9601 17.4078C30.9874 17.2331 30.9678 17.0543 30.9035 16.8897C30.8392 16.7251 30.7323 16.5804 30.5939 16.4705C30.4555 16.3606 30.2904 16.2893 30.1154 16.264L23.7354 15.338L20.8834 9.55797C20.8009 9.3905 20.6731 9.24948 20.5146 9.15087C20.3561 9.05226 20.1731 9 19.9864 9C19.7997 9 19.6168 9.05226 19.4582 9.15087C19.2997 9.24948 19.1719 9.3905 19.0894 9.55797L16.2364 15.338Z" fill="white" style="fill:white;fill-opacity:1;"/>
</svg>
