<svg width="189" height="65" viewBox="0 0 189 65" fill="none" xmlns="http://www.w3.org/2000/svg">
<rect width="189" height="65" rx="32.5" fill="#707782" style="fill:#707782;fill:color(display-p3 0.4392 0.4667 0.5098);fill-opacity:1;"/>
<path d="M43.0747 34.3291L30.1211 47.4684C30.1223 47.4706 30.1223 47.4741 30.1235 47.4765C30.5214 48.9032 31.884 49.9532 33.5022 49.9532C34.1494 49.9532 34.7565 49.7857 35.2772 49.4927L35.3186 49.4695L49.8989 41.4289L43.0747 34.3291Z" fill="#EA4335" style="fill:#EA4335;fill:color(display-p3 0.9176 0.2627 0.2078);fill-opacity:1;"/>
<path d="M56.1802 32.092L56.168 32.0838L49.8731 28.5967L42.7812 34.6279L49.8987 41.4278L56.1595 37.9756C57.2569 37.4081 58.0027 36.3023 58.0027 35.0279C58.0027 33.7605 57.2679 32.6606 56.1802 32.092Z" fill="#FBBC04" style="fill:#FBBC04;fill:color(display-p3 0.9843 0.7373 0.0157);fill-opacity:1;"/>
<path d="M30.1193 22.5303C30.0414 22.8047 30 23.093 30 23.3907V46.6088C30 46.9065 30.0414 47.1949 30.1205 47.4681L43.5181 34.6649L30.1193 22.5303Z" fill="#4285F4" style="fill:#4285F4;fill:color(display-p3 0.2588 0.5216 0.9569);fill-opacity:1;"/>
<path d="M43.1669 35.0001L49.8706 28.5944L35.3074 20.5248C34.7781 20.2213 34.1601 20.0469 33.4995 20.0469C31.8813 20.0469 30.5162 21.0992 30.1184 22.5271C30.1184 22.5282 30.1172 22.5294 30.1172 22.5306L43.1669 35.0001Z" fill="#34A853" style="fill:#34A853;fill:color(display-p3 0.2039 0.6588 0.3255);fill-opacity:1;"/>
<path d="M69.6571 22.5155C69.6571 23.7615 69.2616 24.7543 68.4706 25.4937C67.5816 26.3742 66.4126 26.8145 64.9641 26.8145C63.5771 26.8145 62.4041 26.3659 61.4439 25.4687C60.4839 24.5715 60.0039 23.4666 60.0039 22.1541C60.0039 20.8415 60.4839 19.7366 61.4439 18.8394C62.4041 17.9423 63.5771 17.4937 64.9641 17.4937C65.6661 17.4937 66.3286 17.61 66.9506 17.8426C67.5726 18.0751 68.0841 18.4033 68.4841 18.827L67.6041 19.6494C67.3106 19.3171 66.9286 19.0596 66.4571 18.8768C65.9951 18.6858 65.4971 18.5902 64.9641 18.5902C63.9241 18.5902 63.0441 18.9267 62.3241 19.5996C61.6126 20.2808 61.2572 21.1323 61.2572 22.1541C61.2572 23.1759 61.6126 24.0274 62.3241 24.7086C63.0441 25.3815 63.9241 25.718 64.9641 25.718C65.9151 25.718 66.7061 25.4687 67.3371 24.9703C67.9686 24.4718 68.3326 23.7865 68.4306 22.9142H64.9641V21.8426H69.5906C69.6351 22.0751 69.6571 22.2994 69.6571 22.5155ZM76.7211 17.693V18.7896H72.3746V21.6183H76.2945V22.6899H72.3746V25.5186H76.7211V26.6151H71.1476V17.693H76.7211ZM81.6276 18.7896V26.6151H80.4011V18.7896H77.7341V17.693H84.2941V18.7896H81.6276ZM89.731 26.6151H88.5046V17.693H89.731V26.6151ZM94.9086 18.7896V26.6151H93.6821V18.7896H91.0155V17.693H97.5756V18.7896H94.9086ZM110.872 22.1541C110.872 23.475 110.401 24.5798 109.459 25.4687C108.508 26.3659 107.343 26.8145 105.965 26.8145C104.579 26.8145 103.414 26.3659 102.472 25.4687C101.53 24.5798 101.059 23.475 101.059 22.1541C101.059 20.8332 101.53 19.7283 102.472 18.8394C103.414 17.9423 104.579 17.4937 105.965 17.4937C107.352 17.4937 108.517 17.9464 109.459 18.8519C110.401 19.7408 110.872 20.8415 110.872 22.1541ZM102.312 22.1541C102.312 23.1842 102.659 24.0357 103.352 24.7086C104.054 25.3815 104.925 25.718 105.965 25.718C107.005 25.718 107.872 25.3815 108.565 24.7086C109.268 24.044 109.619 23.1925 109.619 22.1541C109.619 21.1157 109.268 20.2642 108.565 19.5996C107.872 18.9267 107.005 18.5902 105.965 18.5902C104.925 18.5902 104.054 18.9267 103.352 19.5996C102.659 20.2725 102.312 21.124 102.312 22.1541ZM113.546 26.6151H112.32V17.693H113.813L118.453 24.6338H118.506L118.453 22.9142V17.693H119.68V26.6151H118.4L113.546 19.3379H113.493L113.546 21.0575V26.6151Z" fill="white" style="fill:white;fill-opacity:1;"/>
<path d="M136.695 48.0321H138.866V34.3106H136.695V48.0321ZM156.255 39.2532L153.766 45.2024H153.691L151.108 39.2532H148.768L152.643 47.5678L150.435 52.1932H152.699L158.67 39.2532H156.255ZM143.94 46.4735C143.227 46.4735 142.236 46.1387 142.236 45.3078C142.236 44.2496 143.471 43.8435 144.538 43.8435C145.492 43.8435 145.943 44.0378 146.522 44.3024C146.353 45.5734 145.193 46.4735 143.94 46.4735ZM144.201 38.9536C142.629 38.9536 141 39.6067 140.327 41.0545L142.254 41.8129C142.666 41.0545 143.433 40.8064 144.239 40.8064C145.362 40.8064 146.504 41.4419 146.522 42.5724V42.713C146.129 42.5011 145.287 42.1839 144.257 42.1839C142.18 42.1839 140.064 43.2607 140.064 45.2726C140.064 47.109 141.768 48.2922 143.677 48.2922C145.137 48.2922 145.943 47.6743 146.448 46.9498H146.522V48.009H148.618V42.7481C148.618 40.3124 146.691 38.9536 144.201 38.9536ZM130.78 40.9238H127.691V36.2205H130.78C132.403 36.2205 133.325 37.4882 133.325 38.5716C133.325 39.6352 132.403 40.9238 130.78 40.9238ZM130.724 34.3106H125.52V48.0321H127.691V42.8337H130.724C133.131 42.8337 135.497 41.1895 135.497 38.5716C135.497 35.9538 133.131 34.3106 130.724 34.3106ZM102.348 46.4757C100.848 46.4757 99.5924 45.2913 99.5924 43.6646C99.5924 42.0203 100.848 40.8174 102.348 40.8174C103.83 40.8174 104.991 42.0203 104.991 43.6646C104.991 45.2913 103.83 46.4757 102.348 46.4757ZM104.842 40.0216H104.767C104.279 39.4738 103.342 38.9788 102.161 38.9788C99.6854 38.9788 97.4169 41.0292 97.4169 43.6646C97.4169 46.2814 99.6854 48.3153 102.161 48.3153C103.342 48.3153 104.279 47.8202 104.767 47.2538H104.842V47.9267C104.842 49.7126 103.83 50.6675 102.198 50.6675C100.867 50.6675 100.041 49.7652 99.7039 49.0046L97.8104 49.7477C98.3539 50.9858 99.7984 52.506 102.198 52.506C104.748 52.506 106.905 51.0912 106.905 47.6435V39.2609H104.842V40.0216ZM108.405 48.0321H110.58V34.3095H108.405V48.0321ZM113.785 43.5054C113.729 41.702 115.267 40.7822 116.373 40.7822C117.236 40.7822 117.967 41.1883 118.21 41.7723L113.785 43.5054ZM120.536 41.949C120.124 40.9063 118.867 38.9788 116.298 38.9788C113.748 38.9788 111.63 40.87 111.63 43.647C111.63 46.2638 113.729 48.3153 116.541 48.3153C118.811 48.3153 120.124 47.0069 120.667 46.2462L118.98 45.1848C118.417 45.963 117.648 46.4757 116.541 46.4757C115.436 46.4757 114.648 45.9982 114.141 45.0619L120.76 42.4792L120.536 41.949ZM67.8039 40.4112V42.3914H72.8284C72.6784 43.5054 72.2849 44.3188 71.6854 44.8841C70.9534 45.5745 69.8094 46.3352 67.8039 46.3352C64.7094 46.3352 62.2909 43.9829 62.2909 41.0654C62.2909 38.1468 64.7094 35.7957 67.8039 35.7957C69.4729 35.7957 70.6914 36.4147 71.5914 37.2105L73.0729 35.8132C71.8159 34.6816 70.1479 33.8145 67.8039 33.8145C63.5664 33.8145 60.0039 37.0689 60.0039 41.0654C60.0039 45.0619 63.5664 48.3153 67.8039 48.3153C70.0909 48.3153 71.8159 47.6073 73.1659 46.2814C74.5544 44.973 74.9849 43.1345 74.9849 41.6482C74.9849 41.1883 74.9479 40.7646 74.8719 40.4112H67.8039ZM80.6984 46.4757C79.1979 46.4757 77.9039 45.3088 77.9039 43.647C77.9039 41.9666 79.1979 40.8174 80.6984 40.8174C82.1974 40.8174 83.4914 41.9666 83.4914 43.647C83.4914 45.3088 82.1974 46.4757 80.6984 46.4757ZM80.6984 38.9788C77.9599 38.9788 75.7289 40.9414 75.7289 43.647C75.7289 46.3352 77.9599 48.3153 80.6984 48.3153C83.4359 48.3153 85.6669 46.3352 85.6669 43.647C85.6669 40.9414 83.4359 38.9788 80.6984 38.9788ZM91.5374 46.4757C90.0369 46.4757 88.7429 45.3088 88.7429 43.647C88.7429 41.9666 90.0369 40.8174 91.5374 40.8174C93.0374 40.8174 94.3304 41.9666 94.3304 43.647C94.3304 45.3088 93.0374 46.4757 91.5374 46.4757ZM91.5374 38.9788C88.7999 38.9788 86.5689 40.9414 86.5689 43.647C86.5689 46.3352 88.7999 48.3153 91.5374 48.3153C94.2749 48.3153 96.5059 46.3352 96.5059 43.647C96.5059 40.9414 94.2749 38.9788 91.5374 38.9788Z" fill="white" style="fill:white;fill-opacity:1;"/>
</svg>
