<svg width="174" height="51" viewBox="0 0 174 51" fill="none" xmlns="http://www.w3.org/2000/svg">
<path d="M52.0273 19.089V10C52.0273 10 39.981 10 34.3929 10C32.1174 10 30.1097 12.3697 30.1097 14.3498C30.1097 16.2652 30.1097 18.7969 30.1097 18.7969C30.1097 18.7969 25.1408 10.0001 19.7699 10C18.1638 9.99999 15.0853 10 15.0853 10V18.7969C15.0853 18.7969 9.8102 9.99996 4.31048 10C2.60392 10 0.0273438 10 0.0273438 10V19.1215H15.0853V41H24.4881C24.4881 41 24.4881 36.3906 24.4881 33.2743C24.4881 27.125 15.4533 19.1215 15.4533 19.1215H30.1097V41H39.5125C39.5125 41 39.5125 36.488 39.5125 33.2743C39.5125 26.555 30.4443 19.1215 30.4443 19.1215L52.0273 19.089Z" fill="#185ADC" stroke="#185ADC" style="fill:#185ADC;fill:color(display-p3 0.0958 0.3512 0.8621);fill-opacity:1;stroke:#185ADC;stroke:color(display-p3 0.0958 0.3512 0.8621);stroke-opacity:1;" stroke-width="0.0527671"/>
<path d="M65.918 32.4004C63.8607 32.4004 62.2884 31.8405 61.2012 30.7207C59.7428 29.347 59.0137 27.3678 59.0137 24.7832C59.0137 22.1465 59.7428 20.1673 61.2012 18.8457C62.2884 17.7259 63.8607 17.166 65.918 17.166C67.9753 17.166 69.5475 17.7259 70.6348 18.8457C72.0866 20.1673 72.8125 22.1465 72.8125 24.7832C72.8125 27.3678 72.0866 29.347 70.6348 30.7207C69.5475 31.8405 67.9753 32.4004 65.918 32.4004ZM68.7598 28.5332C69.4564 27.6543 69.8047 26.4043 69.8047 24.7832C69.8047 23.1686 69.4531 21.9219 68.75 21.043C68.0534 20.1576 67.1094 19.7148 65.918 19.7148C64.7266 19.7148 63.776 20.1543 63.0664 21.0332C62.3568 21.9121 62.002 23.1621 62.002 24.7832C62.002 26.4043 62.3568 27.6543 63.0664 28.5332C63.776 29.4121 64.7266 29.8516 65.918 29.8516C67.1094 29.8516 68.0566 29.4121 68.7598 28.5332ZM86.7578 32H83.75L77.8711 21.7754V32H75.0684V17.6055H78.2227L83.9551 27.6543V17.6055H86.7578V32ZM99.5898 25.7109H92.5977V29.4121H100.566V32H89.6582V17.6055H100.215V20.1543H92.5977V23.2109H99.5898V25.7109ZM113.369 17.6055V20.1543H109.062V32H106.035V20.1543H101.709V17.6055H113.369ZM121.152 32.4004C119.095 32.4004 117.523 31.8405 116.436 30.7207C114.977 29.347 114.248 27.3678 114.248 24.7832C114.248 22.1465 114.977 20.1673 116.436 18.8457C117.523 17.7259 119.095 17.166 121.152 17.166C123.21 17.166 124.782 17.7259 125.869 18.8457C127.321 20.1673 128.047 22.1465 128.047 24.7832C128.047 27.3678 127.321 29.347 125.869 30.7207C124.782 31.8405 123.21 32.4004 121.152 32.4004ZM123.994 28.5332C124.691 27.6543 125.039 26.4043 125.039 24.7832C125.039 23.1686 124.688 21.9219 123.984 21.043C123.288 20.1576 122.344 19.7148 121.152 19.7148C119.961 19.7148 119.01 20.1543 118.301 21.0332C117.591 21.9121 117.236 23.1621 117.236 24.7832C117.236 26.4043 117.591 27.6543 118.301 28.5332C119.01 29.4121 119.961 29.8516 121.152 29.8516C122.344 29.8516 123.291 29.4121 123.994 28.5332ZM138.867 26.4531V17.6055H141.924V26.4531C141.924 27.9831 141.686 29.1745 141.211 30.0273C140.326 31.5898 138.636 32.3711 136.143 32.3711C133.649 32.3711 131.956 31.5898 131.064 30.0273C130.589 29.1745 130.352 27.9831 130.352 26.4531V17.6055H133.408V26.4531C133.408 27.4427 133.525 28.1654 133.76 28.6211C134.124 29.4284 134.919 29.832 136.143 29.832C137.36 29.832 138.151 29.4284 138.516 28.6211C138.75 28.1654 138.867 27.4427 138.867 26.4531ZM154.961 30.9258C153.887 31.9089 152.513 32.4004 150.84 32.4004C148.77 32.4004 147.142 31.7363 145.957 30.4082C144.772 29.0736 144.18 27.2441 144.18 24.9199C144.18 22.4069 144.854 20.4701 146.201 19.1094C147.373 17.9245 148.864 17.332 150.674 17.332C153.096 17.332 154.867 18.1263 155.986 19.7148C156.605 20.6068 156.937 21.502 156.982 22.4004H153.975C153.779 21.7103 153.529 21.1895 153.223 20.8379C152.676 20.2129 151.865 19.9004 150.791 19.9004C149.697 19.9004 148.835 20.3431 148.203 21.2285C147.572 22.1074 147.256 23.3542 147.256 24.9688C147.256 26.5833 147.588 27.7943 148.252 28.6016C148.923 29.4023 149.772 29.8027 150.801 29.8027C151.855 29.8027 152.66 29.4577 153.213 28.7676C153.519 28.3965 153.773 27.8398 153.975 27.0977H156.953C156.693 28.6667 156.029 29.9427 154.961 30.9258ZM167.842 32V25.5742H162.217V32H159.238V17.6055H162.217V23.0938H167.842V17.6055H170.83V32H167.842Z" fill="#23262B" style="fill:#23262B;fill:color(display-p3 0.1373 0.1490 0.1686);fill-opacity:1;"/>
</svg>
