<svg width="19" height="16" viewBox="0 0 19 16" fill="none" xmlns="http://www.w3.org/2000/svg">
<path d="M0.286548 7.30888C2.22747 6.23979 4.39407 5.34747 6.41842 4.45062C9.9011 2.98164 13.3976 1.53812 16.9294 0.194224C17.6166 -0.0347496 18.8512 -0.258645 18.9723 0.759649C18.906 2.20109 18.6333 3.6341 18.4463 5.0671C17.9715 8.2184 17.4227 11.3589 16.8876 14.4998C16.7032 15.5461 15.3926 16.0877 14.554 15.4181C12.5387 14.0569 10.5078 12.7088 8.51817 11.3159C7.86642 10.6536 8.4708 9.70259 9.05287 9.22967C10.7128 7.59383 12.4731 6.204 14.0463 4.48362C14.4707 3.4589 13.2168 4.3225 12.8032 4.58713C10.5308 6.1531 8.31399 7.81468 5.91814 9.19095C4.69434 9.86462 3.26797 9.28892 2.04473 8.91302C0.947954 8.45891 -0.659259 8.00139 0.286437 7.30901L0.286548 7.30888Z" fill="#3083FF" style="fill:#3083FF;fill:color(display-p3 0.1875 0.5125 1.0000);fill-opacity:1;"/>
</svg>
