<svg width="53" height="32" viewBox="0 0 53 32" fill="none" xmlns="http://www.w3.org/2000/svg">
<path d="M52.0264 9.11539V0.0263886C52.0264 0.0263886 39.98 0.0263886 34.3919 0.0263886C32.1165 0.0263886 30.1087 2.39605 30.1087 4.37615C30.1087 6.2916 30.1087 8.82325 30.1087 8.82325C30.1087 8.82325 25.1398 0.026435 19.769 0.0263886C18.1628 0.0263747 15.0843 0.0263886 15.0843 0.0263886V8.82325C15.0843 8.82325 9.80922 0.0263381 4.30951 0.0263886C2.60294 0.0264043 0.0263672 0.0263886 0.0263672 0.0263886V9.14785H15.0843V31.0264H24.4871C24.4871 31.0264 24.4871 26.417 24.4871 23.3007C24.4871 17.1514 15.4524 9.14785 15.4524 9.14785H30.1087V31.0264H39.5116C39.5116 31.0264 39.5116 26.5143 39.5116 23.3007C39.5116 16.5814 30.4434 9.14785 30.4434 9.14785L52.0264 9.11539Z" fill="#185ADC" stroke="#185ADC" style="fill:#185ADC;fill:color(display-p3 0.0958 0.3512 0.8621);fill-opacity:1;stroke:#185ADC;stroke:color(display-p3 0.0958 0.3512 0.8621);stroke-opacity:1;" stroke-width="0.0527671"/>
</svg>
